<svg xmlns="http://www.w3.org/2000/svg" width="35.819" height="35.819" viewBox="0 0 35.819 35.819"><defs><style>.a{fill:#475993;}</style></defs><path class="a" d="M30.994,0H4.829A4.827,4.827,0,0,0,0,4.827V30.992a4.827,4.827,0,0,0,4.827,4.827h12.9l.022-12.8H14.43a.785.785,0,0,1-.785-.782l-.016-4.126a.785.785,0,0,1,.785-.788h3.319V13.337c0-4.627,2.826-7.146,6.953-7.146h3.387a.785.785,0,0,1,.785.785v3.479a.785.785,0,0,1-.784.785H25.995c-2.244,0-2.679,1.067-2.679,2.632v3.451h4.932a.785.785,0,0,1,.779.877l-.489,4.126a.785.785,0,0,1-.779.692H23.338l-.022,12.8h7.679a4.827,4.827,0,0,0,4.827-4.827V4.827A4.827,4.827,0,0,0,30.994,0Z" transform="translate(-0.002)"/></svg>