<svg xmlns="http://www.w3.org/2000/svg" width="450.393" height="259.928" viewBox="0 0 450.393 259.928"><defs><style>.a{opacity:0.62;}.b{fill:#fff;}</style></defs><g class="a" transform="translate(0 0)"><path class="b" d="M4978.285,3161.067v-1.4a1.189,1.189,0,0,0,1.4-1.4h2.8c1.775,1.9,3.835,1.9,5.611,0,1.9-1.774,1.9-3.836,0-5.611v-2.8a1.189,1.189,0,0,0,1.4-1.4q1.456.053,1.4-1.4c2.6-.729,4.589,1.578,7.107,1.43,1.739-.1,3.6-.375,4.951,1.239,1.294-2,3.338-1.315,5.063-1.222,7.726.415,15.526-1.122,23.221,1.218,1.883.573,4.213.075,6.541-.815,3.455-1.323,7.369-.3,11.174.768,3.239.909,6.99.575,10.414.084,3.79-.542,6.924,1.694,10.616,1.593,9.543-.259,19.1-.087,28.646-.087,1.164,0,2.836.5,3.409-.084,2.953-3,5.328-.28,7.791.617.789.288,1.729,1.39,2.365.786,2.84-2.7,6.213-1.166,9.268-1.229,10.944-.229,21.895-.064,32.841-.12,1.558-.007,3.182.483,4.705-.43.594-.356,9.351.728,9.942,1.089a3.239,3.239,0,0,1,1.479,3.579,1.189,1.189,0,0,0-1.4,1.4h-1.4a1.19,1.19,0,0,0-1.4,1.4c-1.062.211-2.686-.7-2.8,1.4v1.4c-2.288.218-1.235,1.99-1.373,3.117-.289,2.426-.293,2.463-2.835,1.091-.658-2.7-2.828-.868-4.209-1.4h-1.4a1.088,1.088,0,0,0-1.062-1.375c-.941-.106-1.843.061-1.741,1.375a1.091,1.091,0,0,0-1.378,1.063c-.1.941.062,1.843,1.378,1.742v1.4c.118,2.1,1.741,1.19,2.8,1.4v1.4c-1.921,1.412-1.921,2.8,0,4.208a1.189,1.189,0,0,0,1.4,1.4c0,1.319,0,2.641,0,3.961,0,.958.188,1.736,1.4,1.649v2.805a1.19,1.19,0,0,0-1.4,1.4c-2.1.119-1.191,1.742-1.4,2.806a1.189,1.189,0,0,0-1.4,1.4q-1.456-.052-1.4,1.4a1.19,1.19,0,0,0-1.4,1.4c-1.063.212-2.686-.7-2.8,1.4h-1.4c-2.1.119-1.191,1.741-1.4,2.8h-2.807a1.09,1.09,0,0,0-1.062-1.376c-.942-.1-1.844.061-1.742,1.376v4.209a3797.082,3797.082,0,0,0,2.8,2.8v8.416q-1.456-.053-1.4,1.4-1.455-.053-1.4,1.4c.05.682-.09,1.3-.93,1.113-.23-.052-.32-.726-.473-1.113a3799.287,3799.287,0,0,1-2.806-2.805,1.189,1.189,0,0,0-1.4-1.4,1.09,1.09,0,0,0-1.062-1.376c-.941-.1-1.842.061-1.743,1.376v2.805c-.534,1.379,1.3,3.55-1.4,4.208q.053-1.456-1.4-1.4v-9.5c0-.954-.109-1.82-1.4-1.722-.658-2.7-2.829-.868-4.21-1.4,0-1.32,0-2.641,0-3.961,0-.958-.187-1.736-1.4-1.649q.053-1.455-1.4-1.4a1.188,1.188,0,0,0-1.4-1.4q.051-1.457-1.405-1.4h-2.8q-1.456-.053-1.4,1.4-1.455-.053-1.4,1.4-1.458-.051-1.4,1.4c-.971-.035-1.436.433-1.4,1.4q-1.458-.052-1.4,1.4c-.972-.036-1.437.431-1.4,1.4q-.7,1.4-1.4,2.805c-1.268-.094-1.405.741-1.405,1.7q0,3.36,0,6.721a1.188,1.188,0,0,1-1.4,1.4q-1.458-.052-1.4,1.4h-1.4c.034-.97-.432-1.437-1.4-1.4v-1.4c-.211-1.063.7-2.686-1.4-2.805-.212-1.064.7-2.687-1.4-2.806-.21-1.063.7-2.687-1.4-2.805v-1.4q.051-1.455-1.4-1.4c0-1.32,0-2.642,0-3.961,0-.958-.187-1.737-1.4-1.65-.12-2.1-1.743-1.191-2.806-1.4.034-.971-.432-1.437-1.4-1.4v-1.4a1.189,1.189,0,0,0-1.4-1.4c-.118-2.1-1.741-1.191-2.806-1.4a1.089,1.089,0,0,0-1.062-1.375c-.94-.105-1.845.061-1.742,1.375h-4.207c-.658-2.7-2.827-.868-4.208-1.4h-2.806q.054-1.457-1.4-1.4h-1.4q.053-1.455-1.4-1.4.053-1.455-1.4-1.4a1.188,1.188,0,0,0-1.4-1.4,1.089,1.089,0,0,0-1.064-1.375c-.941-.105-1.843.06-1.741,1.375v2.805q-.053,1.457,1.4,1.4-.056,1.456,1.4,1.4-.053,1.455,1.4,1.4a1.19,1.19,0,0,0,1.4,1.4h2.806c1.491.2,2.42,2.088,4.208,1.4h1.4a1.19,1.19,0,0,0,1.4,1.4v2.8a1.189,1.189,0,0,0-1.4,1.4q-1.459-.052-1.4,1.4c-.971-.035-1.437.432-1.4,1.4q-1.458-.053-1.4,1.4-1.456-.051-1.4,1.4c-2.177-.226-3.659.591-4.209,2.806h-1.4q-1.456-.052-1.4,1.4h-2.806c-.712-3.609-2-4.9-5.61-5.61-.535-1.38,1.3-3.55-1.4-4.208q.053-1.455-1.4-1.4a2279.546,2279.546,0,0,0-2.806-2.8v-1.4a1.189,1.189,0,0,0-1.4-1.4c-.629-2.186-3.161-3.117-3.563-5.554-.108-.654-1.14-2.218-2.42-.454-.56.772-1.361,1.386-.1,1.98,2.358,1.12,1.155,3.9,2.52,5.249,1.607,1.59,1.586,3.605,2.356,5.361,1.727,3.935,2.073,8.709,5.985,11.548.749.541,1.725,1.208,1.915,1.984.406,1.654,1.133,3.083,2.634,3.666,1.585.611,3.031-.271,4.326-1.305.284-.229.909-.005,1.373-.04,1.457-.1,2.595,1.142,1.747,2.056a11.191,11.191,0,0,0-2.853,8c-.012.883-1.3,1.759-2.041,2.613-2.357,2.74-4.927,5.241-7.137,8.184a9.438,9.438,0,0,0-1.431,9.575c1.509,3.918.486,7.714.846,11.536.173,1.852-1.66,2.875-2.886,3.615-2.987,1.806-6.008,3.107-4.221,7.664.381.975-.834,2.951-1.813,4-1.49,1.6-2.718,3.085-2.25,5.408.215,1.065-.468,1.681-1.144,2.331-1.341,1.3-3.011,2.429-3.9,4-2.367,4.174-6.905,3.748-10.476,5.281-1.735.745-5.36-1.9-5.39-4.122-.035-2.625-1.475-4.6-2.027-6.906a105.211,105.211,0,0,0-4.964-15.47c-.9-2.2-1.1-5.682.069-7.5,1.77-2.764.722-5.357,1.169-7.968a8.656,8.656,0,0,0-2.5-7.336,12.4,12.4,0,0,1-3.143-9.255c.122-4.284-.035-4.268-4.41-5.9-.6-.225-1.037-.873-1.632-1.129a9.6,9.6,0,0,0-5.768-.4c-1.98.354-3.335,2.234-5.728,1.678-1.574-.363-3.562-.755-5.263.758-.435.386-2.386-.4-3.23-1.122a26.7,26.7,0,0,1-4.678-5.06c-.441-.646-.558-1.771-1.332-2.2-5.371-3.007-4.422-8.143-4.329-12.917.033-1.721,1.3-3.3.042-5.207-.5-.757-.391-2.821.2-3.249,3.109-2.26,2.978-6.545,5.865-8.854a20.085,20.085,0,0,0,5.1-6.989c1.836-3.613,4.3-6.768,8.968-5.7,2.575.587,4.023-1.819,6.454-1.587,2.134.2,4.291.479,6.534-1.137,1.9-1.368,4.684.6,4.533,3.288-.2,3.58,2.066,4.465,4.42,5.87,1.558.93,3.842-.425,4.94,1.847.176.364,2.34.414,2.6-.009,2.986-4.756,7.021-1.441,10.114-.878,6.622,1.2,7.092,1.605,11.713-1.866q1.453.052,1.4-1.4v-2.805a1.089,1.089,0,0,0,1.376-1.063c.1-.941-.061-1.844-1.376-1.743q.051-1.455-1.4-1.4c.089-1.244-.723-1.405-1.677-1.4-1.781,0-3.561,0-5.338,0h-2.806c-.533-1.38,1.3-3.551-1.4-4.208a1.188,1.188,0,0,0-1.4-1.4c-1.411-1.922-2.8-1.922-4.208,0q-1.458-.053-1.4,1.4v1.4h-1.4v-1.4c-.212-1.063.7-2.686-1.4-2.8q.053-1.455-1.4-1.4.056-1.456-1.4-1.4a3797.3,3797.3,0,0,0-2.8-2.805q.053-1.455-1.4-1.4h-1.4c-.153-.387-.241-1.06-.474-1.112-.839-.191-.979.431-.928,1.112h-1.4l-2.807,1.4h-4.207c-1.382.535-3.551-1.3-4.209,1.4q-1.455-.052-1.4,1.4a1899.919,1899.919,0,0,0-2.806,2.806c-2.1.119-1.19,1.742-1.4,2.8q-1.456-.052-1.4,1.4v1.4q-1.458-.052-1.4,1.4h-8.417Z" transform="translate(-4783.287 -3068.242)"/><path class="b" d="M5163.535,3173.625a3.237,3.237,0,0,0-1.478-3.578c-.593-.362-9.349-1.446-9.944-1.09-1.522.913-3.146.422-4.705.431-10.945.056-21.9-.11-32.839.119-3.056.063-6.43-1.473-9.269,1.229-.635.6-1.576-.5-2.365-.786-2.463-.9-4.837-3.612-7.791-.617-.574.582-2.245.084-3.408.084-9.551,0-19.105-.172-28.648.086-3.692.1-6.824-2.136-10.617-1.592-3.422.49-7.173.825-10.413-.084-3.8-1.068-7.717-2.091-11.174-.768-2.328.89-4.656,1.388-6.54.815-7.693-2.341-15.5-.8-23.222-1.219-1.728-.092-3.769-.775-5.062,1.223-1.348-1.615-3.211-1.34-4.952-1.239-2.517.147-4.5-2.16-7.106-1.431.553-2.273,3.252-1.77,4.459-3.543,1.026-1.511,2.219-3.3,4.679-3.653,1.46-.212.174-2.492,1.095-3.88,4.322,4.059,9.09,3.333,13.928,1.238a2.955,2.955,0,0,0,1.547-1.2c1.325-3.224,2.158-6.782,6.306-7.739a2.581,2.581,0,0,0-.055-1.773,6.993,6.993,0,0,0-1.967-1.871c-3.993-2.7-4.006-2.686-1.939-7.029,1.176.169,1.442-1,2.177-1.478a1.542,1.542,0,0,0,.6-1.822c-.34-1.14-1.383-.907-2.269-.91-1.906-.007-2.81,1.16-3.31,2.806-.115,1.614-1.5,2.377-2.524,3.114-2.149,1.545-1.764,3.648-1.643,5.655.131,2.242-.887,7-1.946,7.865-.967.79-3.64-.044-3.622-1.333.032-2.1-.886-3.575-2.656-2.559-3.183,1.822-4.375-.525-5.7-2.211-1.074-1.36.093-5,1.793-6.1a18.323,18.323,0,0,0,6.466-7.738c2.464-5.058,6.681-8.359,11.2-11.353,2.076-1.376,7.526-1.312,8.9.527,2.11,2.832,5.411,2.881,8.128,4.231.906.453,2.287-.031,3.021,1.153a5.787,5.787,0,0,1,.994,1.683c.238,1.288-.705,1.5-1.71,1.451-2.145-.1-3.563.787-3.828,2.989-.1.854-.413,1.989.609,2.5.563.28,1.707.405,1.989.079,2.088-2.4,6.164-1.833,7.618-5.211.317-.739,1.458-1.774,2.011-1.661,5.433,1.12,9.575-4.145,14.988-2.934a3.238,3.238,0,0,0,1.915-.4c4.847-2.371,4.841-2.384,8.118-2.458,1.452-1.515-.492-4.219,1.055-5.032,1.616-.854,3.225-2.533,5.516-1.929a8.605,8.605,0,0,1,2.522.719c2.4,1.4,4.45.849,6.729-1,2.419-1.962,6.7-1.56,7.258-5.947.087-.685,1-.744,1.726-.762,2.225-.057,4.6.5,6.428-1.389,3.963,1.039,5.684-2.226,8.33-4.529a15.964,15.964,0,0,0,12.342,3.074,6.479,6.479,0,0,1,.41,4.993c-.238.934-1.908,1.751-1.019,2.863a2.64,2.64,0,0,0,3.7.145c1.712-1.277,3.009-1.052,4.877-.035,1.942,1.058,4.289.728,6.555-.045,4.568-1.558,5.749-1.442,8,2.4,1.116,1.909,1.909,2.49,3.933,2.407,3.148-.127,6.354.243,9.014-1.975,2.27-1.895,5.256-1.382,7.287-.695,6.189,2.1,12.953,2.1,18.8,5.353,4,2.22,8.413,1.382,12.694,1.451,1.26-1.99,3.31-1.053,5.029-1.415,3.9-.821,6.788,1.65,10.055,2.861,4.047,1.5,8.059,3.105,12.051,4.749.6.248,1.513,1.2,1.412,1.411-.374.77-1.008,1.761-1.729,1.946-1.711.438-3.61.853-5.162-.5-1.138-.994-1.969-.706-2.92.241-1.05,1.046-1.893,1.942-.516,3.423,1.152,1.238,1.186,2.107-.852,2.837a12.306,12.306,0,0,0-5.6,3.458c-1.535,1.835-4.108.149-6.284,1.838-3.4,2.635-4.09,2.262-2.484,5.92,1.435,3.264-1.045,5.439-1.6,8.09-.319,1.535-3.876,1.249-4.687-.234-2.321-4.251-2.46-8.415.684-12.367.572-.72,1.325-1.3,1.839-2.056a1.748,1.748,0,0,0-.086-1.325c-.186-.49-5.39-1.389-5.749-1.047a10.66,10.66,0,0,0-1.475,1.5c-1.926,2.787-4.562,3.3-7.823,3.223-8.412-.191-8.417-.038-13.237,6.591-1.276,1.752-.911,4.244.877,4.2,2.966-.073,4.394,2.051,6.453,3.207,3.26,1.833,3.2,1.972.982,5.3-.363.55-1.11.84-.951,1.716C5168.433,3169.1,5165.389,3171.065,5163.535,3173.625Z" transform="translate(-4776.38 -3086.411)"/><path class="b" d="M4932.609,3306.418c-2.137,2.437-3.95,3.884-5.9,2.056-2.521-2.36-5.543-4.2-7.444-7.254-1.214-1.946-2.9-3.553-1.239-6.12a2,2,0,0,0-.385-2.548c-1.492-1.035-.439-2.693-1.011-3.793-1.243-2.393,2.834-3.861.862-6.208-1.528-1.823-.658-3.982-.749-5.979-.116-2.469-.689-5.15,2.106-6.833,1.213-.731.622-2.124.629-3.211.049-6.54-.1-13.081.09-19.615.068-2.335-.864-3.784-2.337-5.39-2.755-3-6.017-5.441-8.138-9.19-1.719-3.037-1.5-7.081-4.784-9.253.352-4.147-2.289-8.9,2.038-12.235,2.564-1.974,2.247-4.581,1.84-6.924-.871-5,3.3-6.672,5.876-9.036,2.3-2.107,5.433-.826,8.15.562,1.585.81,3.4,2.983,5.119.046,1.584.688,3.458,1.044,4.694,2.127,3.2,2.8,5.873,5.99,10.673,6.6,1.792.23,3.246,3.1,4.855,4.773-1.537,5.14,2.595,4.058,5.24,5.307,3.713,1.752,7.741,2.694,11.288,4.952,5,3.182,5.593,4.281,3.119,9.607-.09.192.073.508-.024.688a22.35,22.35,0,0,0-2.179,4c-.417,1.406-2.689,2.472-.99,4.352s-1.289,2.531-1.077,4.174c.58,4.462-2.665,6.256-5.871,8.178-1.684,1.01-3.761,1.43-5.016,3.152-.649.891-1.787,1.381-1.724,2.811.069,1.588.478,3.829-.367,4.66-2.146,2.1-2.938,5.062-5.255,7.058-1.956,1.688-4.847,3.094-4.222,6.643.105.591-1.1.607-1.516.936-1.811,1.435-3.782,2.646-5.472,4.273-2.943,2.836-3.2,6.72-4.033,10.237-.758,3.207.213,6.694-1.439,9.946a3.274,3.274,0,0,0,1.328,4.269C4930.477,3304.937,4931.562,3305.715,4932.609,3306.418Z" transform="translate(-4808.658 -3049.37)"/><path class="b" d="M4946.816,3110.467c.211,1-.688,2.617,1.116,2.762a33.355,33.355,0,0,1,7.9,1.224c2.286.734,4.534,2.409,4.6,3.585.232,3.875,3.213,5.378,5.205,7.75,1,1.194,1.676,2.327-.555,2.916-1.694.448-3.115,1.445-2.773,3.286.481,2.585-1.848,2.036-2.828,2.945-1.7,1.579-3.311,1.167-4.777-.437a19.492,19.492,0,0,0-1.487-1.485c-3.657-3.235-3.821-3.4-.785-6.3,1.87-1.787,1.392-2.826.05-4.536-1.394-1.774-3.955-3.667-5.662-3.266-2.054.483-2.869,1.853-2.864,4.011a4.562,4.562,0,0,1-3.31,4.012c-5.014.275-6.681,4.62-9.66,7.235-1.987,1.747-4.59,3.175-5.249,6.194-.225,1.031-2.154,1.946-1.267,2.832,1.141,1.135.777,2.965,2.377,3.783,2.136,1.089,4,2.821,6.211,3.628,3.69,1.346,4.965,4.044,5.339,7.553-.972-.466-2.237-1.584-2.871-1.3-4.829,2.169-9.488,1.637-14.309-.017-1.41-.484-3.705-.561-4.669.262-1.958,1.672-3.968.946-5.918,1-4.895.151-9.795.08-14.694.039-3-.025-6.16.416-8.945-.4-3.152-.917-4.727,2.563-7.5,1.81-2.7-2.285-3.5-5.714-5.037-8.662-1.394-2.666-2.882-4.816-5.884-5.84a21.462,21.462,0,0,1-5.714-2.962,3.455,3.455,0,0,0-3.171-.713c-4.475,1.516-9.633,1.176-13.135,5.4-1.979,2.387-3.466,2.148-5.672.095a44.4,44.4,0,0,0-3.484-3.4c-1.593-1.186-1.347-2.732-1.413-4.332-.058-1.43.359-2.266,1.893-2.015,2.634.432,2.755-1.419,2.264-2.936-.756-2.345-3.227-4.674,1.179-6.066.4-.126.239-2.117.3-3.242.049-.951.039-1.9,1.409-1.8,1.063-.211,2.687.7,2.806-1.4q1.458.052,1.4-1.4h1.4c1.063-.212,2.686.7,2.8-1.4h5.611c-.092,1.244.721,1.405,1.676,1.4,1.779,0,3.558,0,5.338,0h4.207c-.087,1.216.691,1.408,1.648,1.4,1.32-.006,2.642,0,3.961,0,5.313.992,10.31-1.456,15.542-1.42,7.011.049,7.011,0,13.011,2.9,2.446-2.85.347-5.576-.764-7.84-1.243-2.527-2.473,1.025-3.944.754q.637-3.442-2.8-2.8c1.129-4.152,2.982-5.279,6.646-3.83a46.476,46.476,0,0,1,4.583,2.425c2.861,1.523,5.7,2.318,8.779.384,1.644-1.032,2.159-.233,2.524,1.6.542,2.708,2.423,5.169.01,8.02-.632.75-.539,2.821,1.8,2.649,1.851-.138,3.729.058,5.585-.048,2.978-.172,5-2.645,3.356-4.939-1.6-2.243-.228-3.14.355-4.652.367-.953-.275-1.527-1.251-.909a4.921,4.921,0,0,1-2.519.719c-1.613.114-1.863-.726-1.854-2.107.01-1.347.373-2.686,1.786-2.036,3.178,1.458,5.571,0,8.071-1.485v1.4c0,.7.3,1.683-.048,2.055-3.132,3.342-.854,6.262.748,9.079,1.134,1.99,3.363,1.99,5.231.492s.914-2.5-.248-3.928c-2.447-3.006-1.985-4.366,1.2-6.333C4941.948,3110.434,4944.343,3110.419,4946.816,3110.467Z" transform="translate(-4835.977 -3083.565)"/><path class="b" d="M4867.525,3145.884c2.777.754,4.352-2.725,7.5-1.81,2.786.812,5.949.372,8.946.4,4.9.041,9.8.113,14.694-.039,1.951-.059,3.961.667,5.918-1,.962-.822,3.258-.746,4.668-.263,4.821,1.655,9.478,2.188,14.309.018.633-.285,1.9.833,2.871,1.3h2.805c5.26.951,10.229,3.492,15.792,2.846a1.04,1.04,0,0,1,1.038,1.362c.072,1.789-.261,3.467,1.4,5.07,2.01,1.936,1.153,4.15-1.456,4.725-.667.147-1.436-.127-2.087.049-2.538.688-5.347,1.218-6.2,4.185a5.085,5.085,0,0,1-2.072,2.622c-3.224,2.545-4.89,4.486-6.356,8.474a4.422,4.422,0,0,1-.948,1.71c-.657.664-1.325,1.316-1.979,1.982-4.11,4.184-4.114,4.185-4.142,11.123,0,.906.209,1.953-1.081,2.118-1.006.129-1.385-.342-1.813-1.425-1.329-3.367-4.02-4.466-7.645-4.231-4.036.263-8.189-.425-11.391,3.012-1.127,1.206-2.3,2.2-1.942,4.123.565,3.056-.987,6.333,1.361,9.268,1.315,1.643,2.435,2.484,3.95,1.486,1.283-.845,1.946-2.346,3.869-2.608,1.084-.147,1.9-2.009,3.407-.555,1.233,1.188,2.462,2.273.492,3.926-.4.333-.367,1.241-.417,1.894-.073.918-.119,2.013,1.229,1.942,3.9-.207,4.635,2.093,4.369,5.291-.225,2.675.613,4.537,3.681,4.543,1.92,0,2.823,1.16,3.329,2.81-.467,0-.935-.025-1.4,0-5.93.376-5.5,1.079-9.432-3.135-5.451-5.848-5.312-5.313-12.646-8.023-2.625-.969-5.092-2.322-7.809-3.182a8.455,8.455,0,0,1-5.394-6.535,16.164,16.164,0,0,0-4.747-8.645l-2.194,2.646c-.5.28-.759.15-1.181-.364-.586-.719-1.324-1.313-1.955-2-1.069-1.163-3.056-2.1-.989-4.1.176-.172-.255-1.341-.687-1.714-2.958-2.538-3.994-6.347-6.083-9.443a18.543,18.543,0,0,1-1.146-19.621c.974-1.884,1.265-3.164.056-4.842S4867.868,3147.667,4867.525,3145.884Z" transform="translate(-4824.01 -3069.891)"/><path class="b" d="M4907.42,3110.709h1.4c1.775,1.9,3.836,1.9,5.611,0,0-1.167-.069-2.338.019-3.5.1-1.371-.2-2.345-1.816-2.1a5.424,5.424,0,0,1-5.391-2.25c-.712-.887-1.862-1.676-.953-2.87a4.073,4.073,0,0,1,3.379-2.01c1.76-.025,2.429,2.216,4.337,1.554.843-.292,2.051-.061,1.8-1.408-.633-3.359,2.532-4.02,4.019-4.039,3.451-.044,6.4-2.3,9.923-1.664,2.688.484,5.041-2.57,7.779-1.289a17.24,17.24,0,0,1,6.379,4.876c.385.5.658.644,1,.359,3.646-3.051,8.616.92,12.366-2.364.794-.7,2.711-.038,4.1-.156,1.105-.1,2.254.436,3.325-.414,5.031-4,10.97-1.821,16.511-2.38a2.325,2.325,0,0,1,2.34,1.111c2.758,4.2,6.753,5.2,11.438,4.529.881-.125,1.985-.24,2.155.991a2.175,2.175,0,0,1-.679,1.762c-4.52,3.152-5.659,7.512-4.912,12.711a6.255,6.255,0,0,1-1.866,5.563c-1.877,2-2.168,5.117-3.331,7.672a7.53,7.53,0,0,1-6.435,4.762,7.894,7.894,0,0,0-5.843,2.951,9.455,9.455,0,0,1-1.5,1.435c-2.509,1.922-6.765.856-7.831,5.572-.68,3-3.226,5.584-5.155,8.715-3.094-2.6-7.111-4.4-7.564-9.5a6.264,6.264,0,0,0-1.408-2.837c-2.153-2.354-1.281-4.084.677-5.836a10.95,10.95,0,0,0,1.955-1.993c.793-1.212,1.017-2.782-.123-3.723-2.635-2.177-3.389-4.9-4.111-8.167-.851-3.859-4.03-6.179-8.386-6.065a30.158,30.158,0,0,1-3.5-.015c-1.817-.167-3.11-1.264-2.966-3.054.116-1.422-1.453-3.558,1.948-4.177a9.94,9.94,0,0,0,5.473-3.654c.728-.952.9-1.423-.109-2.01-.468-.272-.511-1.3-1.485-.734-4.917,2.836-11.042,3.674-14.528,8.9a5.949,5.949,0,0,1-2.477,2.412c-2.437.849-2.959,2.711-3.392,4.851-.116.578-1.17.81-.943,1.7h-4.209c-1.411-1.922-2.8-1.922-4.208,0h-2.806c-.212-1.064.7-2.687-1.4-2.806A1.189,1.189,0,0,1,4907.42,3110.709Z" transform="translate(-4807.8 -3090.82)"/><path class="b" d="M5095,3259.678c0-6.606-.032-12.67.011-18.732.027-3.838,1.723-5.842,5.425-6.417,3.128-.486,5.942-1.049,7.277-4.655.964-2.6,4.564-3.114,5.647-5.946.4-1.045,1.927-.948,2.451-.563,2.156,1.579,3.443.5,4.782-1.095a14.945,14.945,0,0,1,2.479-2.467c2.96-2.181,6.32-.695,6.992,3.029.745,4.124,1.4,4.849,4.271,4.666,1.4-.088,1.047-.468.6-1.566-.751-1.869.652-4.356,2.555-5.444,1.938-1.109,3.652-.741,3.729,1.066.3,7.065,4.836,12.091,8.333,17.572a11.917,11.917,0,0,1,1.628,4.268c1.791,8.328-4.011,13.757-7.351,20.131-2.821,1.083-5.6,2.32-8.481,3.193-1.777.538-3.448-.207-5.063-1.258a3.884,3.884,0,0,1-1.715-1.571c-2.329-4.225-6.685-7.256-11.1-9.15-2.062-.885-3.117-.28-4.884.591C5107.279,3257.95,5101.735,3260.153,5095,3259.678Z" transform="translate(-4731.692 -3039.298)"/><path class="b" d="M4927.842,3154.634a1.04,1.04,0,0,0-1.039-1.362c-5.564.647-10.534-1.895-15.793-2.846.16-2.422-.793-5.1,1.927-6.878,1.709-1.115.933-3.012.816-4.486-.372-4.679,1.449-8.212,5.046-11.023.694,1.8,2.7,1.512,3.984,2.3,1.485.911,2.608,1.331,2.259,3.258-.21,1.166.9,1.521,1.488,2.155.934,1.01,1.812.948,2.737-.229,1.613-2.05,2.4-2.145,3.45-.521.812,1.262,2.041,2.663,2.015,3.98a5.519,5.519,0,0,0,4.053,5.648c2.773.778,1.4,2.464,1.636,3.748a2.7,2.7,0,0,1-2.595,3.309c-2.411-.15-3.926,2.563-6.393,1.552C4929.826,3152.579,4929.252,3154.708,4927.842,3154.634Z" transform="translate(-4805.781 -3075.835)"/><path class="b" d="M5083.643,3199.208c2.7-.659.868-2.829,1.4-4.208,2.241,1.654,1.311,5.267,3.26,6.462a4.679,4.679,0,0,1,2.551,3.884c.229,1.21,1.095,1.865-.094,3.156a2.675,2.675,0,0,0,.426,3.17,10.6,10.6,0,0,1,3.75,7.534c.063,1.679,1.771.992,2.783,1.013,2.731.059,5.413-.386,7.438,2.434a3.978,3.978,0,0,1,.81,3.781c-.622,1.472-2.513,1.174-3.565.538-2.3-1.393-4.447-2.947-7.337-2.515-.772.114-1.49-.207-1.57-.9-.442-3.918-5.04-3.364-6.541-6.232a37.435,37.435,0,0,0-4.973-7.656c-1.112-1.247-.8-3.037-2.316-4.011-1.03-.662-2.564-1.732-1.214-3.264a2.584,2.584,0,0,1,3.182-.166c3.49,2.745,1.521-.947,1.974-1.648C5083.816,3200.25,5083.643,3199.672,5083.643,3199.208Z" transform="translate(-4738.563 -3048.875)"/><path class="b" d="M5140.659,3221.25c.056,1.112-.436,1.68-1.593,1.6-.681-.045-1.653.195-1.99-.166-2.051-2.188-3.961-4.19-6.378-.418-.67,1.045-.979-.186-1.471-.3-2.884-.67-4.458-3.03-6.277-4.973-2.412-2.574-3.065-3.863-5.212-3.808-2.509.063-1.968-1.953-2.944-2.856-1.43-1.325-.72-2.276.348-3.4,1.262-1.323,2.421-1.34,3.363.121,1.607,2.5,4.055,1.817,6.248,1.731,7.481-.295,11.79,4.1,15.327,9.9A5.38,5.38,0,0,1,5140.659,3221.25Z" transform="translate(-4724.043 -3044.466)"/><path class="b" d="M5106.449,3204.063c-.281,2.413.749,5.183-1.345,7.625-1.07,1.248-1.146,3.732-2.356,4.381-1.445.774-3.628.272-5.482.159-2.1-.128-5.64-3.833-6.246-6.376a2.378,2.378,0,0,1,1.562-2.786c4.383-1.594,7.641-4.6,10.659-7.957.642-.711,1.331-1.4,2.334-1.064,1.112.37.875,1.425.875,2.312Z" transform="translate(-4733.318 -3047.685)"/><path class="b" d="M5037.357,3226.649a9.008,9.008,0,0,1-1.424,5.088,11.225,11.225,0,0,0-1.684,5.616,7.792,7.792,0,0,1-2.566,5.159c-1.672,1.479-2.774.79-4.366-1.275a5.7,5.7,0,0,1-.738-6.229c.159-.4.848-.775.784-1.042-1.428-6,3.412-8.522,6.591-11.945a1.685,1.685,0,0,1,2.914.6A33.537,33.537,0,0,1,5037.357,3226.649Z" transform="translate(-4759.475 -3038.237)"/><path class="b" d="M5145.785,3268.782c-.658-.105-1.622.02-1.913-.364-.6-.79-3.024-1.366-.828-2.875,1.737-1.194,1.742-3.706,4.261-4.535,1.769-.582,2.773-3.214,4.537-4.15a12.325,12.325,0,0,0,5.319-6.1c1.267-2.9,2.731-1.85,4.167-1.142a3.381,3.381,0,0,1,1.295,4.667,8.419,8.419,0,0,1-2.45,2.439,24.328,24.328,0,0,0-10.252,10.256C5149.129,3268.54,5147.537,3269,5145.785,3268.782Z" transform="translate(-4712.708 -3027.201)"/><path class="b" d="M4908.268,3108h11.221v2.805c-2.474-.049-4.868-.034-7.139,1.365-3.189,1.966-3.651,3.327-1.205,6.333,1.163,1.426,2.11,2.432.249,3.927s-4.1,1.5-5.231-.492c-1.6-2.816-3.881-5.736-.747-9.079.35-.372.048-1.355.048-2.055a3797.3,3797.3,0,0,0,2.8-2.805Z" transform="translate(-4808.649 -3083.904)"/><path class="b" d="M4974.027,3122.013c.126,2.193,1.01,4.349-.524,5.5a10.056,10.056,0,0,1-8.265,1.387,3.211,3.211,0,0,1-2.247-3.741c.289-1.788,1.208-2.975,2.94-3.1C4968.441,3121.882,4970.978,3122.013,4974.027,3122.013Z" transform="translate(-4784.857 -3078.281)"/><path class="b" d="M4979.961,3136.032a2.443,2.443,0,0,1,2.75,1.653c.85,2,.87,4.29,2.941,5.813.6.445.358,2.125.39,3.243a2.833,2.833,0,0,1-2.795,3.185c-1.643,0-2.781-1.294-2.808-3.2-.042-2.89.341-5.82-1.337-8.506A1.484,1.484,0,0,1,4979.961,3136.032Z" transform="translate(-4778.435 -3072.64)"/><path class="b" d="M5120.979,3160c-.9,1.7,1.847,2.989.134,5.218-2.344,3.045-2.276,3.561-5.733,3.183-.411-.045-1.076-.234-1.141-.484a2.436,2.436,0,0,1,.044-1.837,33.542,33.542,0,0,1,3.42-3.476c.869-.791.286-1.745.472-2.6Z" transform="translate(-4724.004 -3062.967)"/><path class="b" d="M4937.348,3150.845c-.144.946-2.65,2.215-4.008,2-2.03-.328-4.65-2.232-4.333-3.146.523-1.49,3.528-3.822,4.071-3.144.838,1.049,3.139-.076,2.923,2.087C4935.888,3149.784,4937.063,3149.991,4937.348,3150.845Z" transform="translate(-4798.53 -3068.431)"/><path class="b" d="M5104.019,3161.208c2.543,1.372,2.545,1.335,2.835-1.091.136-1.126-.916-2.9,1.372-3.117.225,3.1-1.047,6.565,2.372,8.933.221.153-1.023,2.421-1.639,3.83-.68-1.126-2.173-1.493-2.1-2.828.1-1.787-.116-2.958-2.331-3.229C5103.5,3163.58,5104.208,3162.069,5104.019,3161.208Z" transform="translate(-4728.083 -3064.175)"/><path class="b" d="M5123.009,3255.16a24.748,24.748,0,0,1,2.482-.136c1.431.083,3.484-.732,3.136,2.093-.295,2.384-1.528,3.471-3.932,3.518-2.354.045-1.562-1.675-1.676-2.873C5122.957,3257.079,5123.009,3256.388,5123.009,3255.16Z" transform="translate(-4720.423 -3024.729)"/><path class="b" d="M4890.3,3109.13c-.187-.017-1.532-.086-2.854-.3-.209-.036-.432-.746-.422-1.139s.227-1.055.483-1.125c2.447-.67,5.227.491,7.469-1.368.624.884,1.927,1.281,1.84,2.68-.082,1.32-1,1.26-1.915,1.257C4893.755,3109.127,4892.607,3109.13,4890.3,3109.13Z" transform="translate(-4815.422 -3085.033)"/><path class="b" d="M5119.806,3162.817H5117a7.7,7.7,0,0,0,1.349-6.27c-.117-.807-1.979-1.071-.418-2.517a4.41,4.41,0,0,1,3.724-1c.771.041,1.537,3.258.888,3.415C5118.6,3157.4,5119.966,3160.394,5119.806,3162.817Z" transform="translate(-4722.831 -3065.784)"/><path class="b" d="M4909.618,3185.215c-2,.667-3.094-1.595-4.979-1.546-.669.016-.744-1.092-.592-1.749.079-.353.559-.869.865-.874,2.446-.035,5.209-.649,6.108,2.765A1.19,1.19,0,0,1,4909.618,3185.215Z" transform="translate(-4808.598 -3054.519)"/><path class="b" d="M4979.585,3142.6c-.085,1.629-1.324,2.321-2.488,2.966-.632.349-3.184-2.053-2.987-2.109,1.806-.518.373-3.567,2.653-3.426C4978.241,3140.122,4979.009,3141.345,4979.585,3142.6Z" transform="translate(-4780.366 -3071.009)"/><path class="b" d="M5026,3187c3.609.711,4.9,2,5.611,5.61-2.494.128-5.1.493-4.3-3.537C5027.425,3188.494,5025.836,3188.113,5026,3187Z" transform="translate(-4759.471 -3052.096)"/><path class="b" d="M5002,3125.811c.5-1.647,1.4-2.814,3.309-2.806.887,0,1.929-.231,2.269.91a1.541,1.541,0,0,1-.6,1.822c-.734.477-1,1.646-2.177,1.477C5004.686,3125.115,5003.063,3126.022,5002,3125.811Z" transform="translate(-4769.133 -3077.87)"/><path class="b" d="M5080,3189c1.292-.1,1.4.768,1.4,1.722v9.5c-1.293.1-1.4-.768-1.4-1.722Z" transform="translate(-4737.727 -3051.294)"/><path class="b" d="M4995.016,3155l4.207,2.805c-.174,1.125.945,1.4,1.393,2.114-.58.23-1.437.828-1.691.633C4997.061,3159.13,4994.559,3158.072,4995.016,3155Z" transform="translate(-4771.966 -3064.98)"/><path class="b" d="M5039.807,3177h1.4v4.208c-1.786.686-2.718-1.2-4.208-1.4q-.053-1.456,1.4-1.4A1.189,1.189,0,0,0,5039.807,3177Z" transform="translate(-4755.042 -3056.122)"/><path class="b" d="M4975.427,3157v8.416A6.69,6.69,0,0,1,4975.427,3157Z" transform="translate(-4780.429 -3064.175)"/><path class="b" d="M4878.4,3112.029q3.444-.637,2.806,2.806c-.921,0-1.846-.06-2.761.016a1.164,1.164,0,0,1-1.419-1.056C4876.92,3112.856,4877.06,3111.925,4878.4,3112.029Z" transform="translate(-4819.459 -3082.321)"/><path class="b" d="M5091,3196.415V3188A6.694,6.694,0,0,1,5091,3196.415Z" transform="translate(-4733.3 -3051.693)"/><path class="b" d="M5063,3197.418q0-3.36,0-6.72c0-.955.137-1.79,1.4-1.7q0,3.359,0,6.719C5064.4,3196.677,5064.264,3197.512,5063,3197.418Z" transform="translate(-4744.572 -3051.293)"/><path class="b" d="M4917.386,3187.422c-.908.271-1.13.421-1.306.377-1.11-.278-2.912.88-3.062-1.4a1.419,1.419,0,0,1,.464-1.132c1.642-.923,2.332.577,3.274,1.4A8.931,8.931,0,0,1,4917.386,3187.422Z" transform="translate(-4804.959 -3052.909)"/><path class="b" d="M5013,3163c1.779,0,3.559,0,5.338,0,.954,0,1.768.16,1.676,1.4q-2.667,0-5.337,0C5013.725,3164.406,5012.91,3164.244,5013,3163Z" transform="translate(-4764.706 -3061.76)"/><path class="b" d="M4858.017,3117.4q-2.67,0-5.338,0c-.955,0-1.768-.16-1.676-1.4,1.778,0,3.557,0,5.337,0C4857.293,3116,4858.107,3116.159,4858.017,3117.4Z" transform="translate(-4829.93 -3080.683)"/><path class="b" d="M4852.609,3116.409H4847C4848.774,3114.511,4850.836,3114.511,4852.609,3116.409Z" transform="translate(-4831.538 -3081.091)"/><path class="b" d="M4982,3151c1.9,1.774,1.9,3.836,0,5.61Z" transform="translate(-4777.185 -3066.591)"/><path class="b" d="M4982.806,3149.013v2.8c-1.228-.115-3.092.6-2.768-1.742C4980.276,3148.361,4981.812,3149.205,4982.806,3149.013Z" transform="translate(-4777.99 -3067.408)"/><path class="b" d="M4983.609,3155c-1.774,1.9-3.835,1.9-5.61,0Z" transform="translate(-4778.794 -3064.98)"/><path class="b" d="M4838.7,3140.814c-.922-.019-1.712-.129-1.72-1.429a1.174,1.174,0,0,1,1.109-1.36c.957-.1,1.743.1,1.755,1.395C4839.85,3140.285,4839.428,3140.6,4838.7,3140.814Z" transform="translate(-4835.572 -3071.824)"/><path class="b" d="M4908,3184.4a1.189,1.189,0,0,0,1.4-1.4c1.366.2,2.013,1.222,2.767,2.452C4910.57,3185.526,4908.835,3187.024,4908,3184.4Z" transform="translate(-4806.979 -3053.707)"/><path class="b" d="M5034,3190.817c.55-2.215,2.032-3.032,4.207-2.806C5037.658,3190.225,5036.177,3191.042,5034,3190.817Z" transform="translate(-4756.249 -3051.704)"/><path class="b" d="M4864.612,3118.4c-1.319,0-2.64,0-3.96,0-.958,0-1.737-.188-1.649-1.4,1.319,0,2.641,0,3.961,0C4863.92,3117,4864.7,3117.188,4864.612,3118.4Z" transform="translate(-4826.708 -3080.28)"/><path class="b" d="M5102.4,3173.613c-1.216.087-1.408-.691-1.4-1.65.006-1.319,0-2.641,0-3.961,1.216-.087,1.408.691,1.4,1.65C5102.4,3170.971,5102.4,3172.292,5102.4,3173.613Z" transform="translate(-4729.273 -3059.748)"/><path class="b" d="M5054,3183c1.217-.087,1.407.691,1.4,1.649,0,1.32,0,2.641,0,3.961-1.216.087-1.407-.691-1.4-1.649C5054.005,3185.643,5054,3184.322,5054,3183Z" transform="translate(-4748.197 -3053.709)"/><path class="b" d="M4913.611,3105c-1.775,1.9-3.836,1.9-5.611,0Z" transform="translate(-4806.979 -3085.112)"/><path class="b" d="M5076,3184c1.217-.087,1.408.692,1.4,1.65,0,1.319,0,2.641,0,3.961-1.217.087-1.409-.691-1.4-1.65C5076.005,3186.643,5076,3185.322,5076,3184Z" transform="translate(-4739.338 -3053.305)"/><path class="b" d="M4987,3155.437c.658-2.7,2.826-.868,4.207-1.4C4990.549,3156.738,4988.38,3154.9,4987,3155.437Z" transform="translate(-4775.171 -3065.417)"/><path class="b" d="M4993,3154.4l2.806-1.4v2.805C4994.742,3155.594,4993.12,3156.5,4993,3154.4Z" transform="translate(-4772.755 -3065.785)"/><path class="b" d="M5043,3178h4.208C5045.8,3179.922,5044.41,3179.922,5043,3178Z" transform="translate(-4752.625 -3055.72)"/><path class="b" d="M5006,3159.414c1.411-1.921,2.8-1.921,4.208,0Z" transform="translate(-4767.521 -3063.783)"/><path class="b" d="M5025.035,3184c2.7.658.868,2.828,1.4,4.208C5023.733,3187.55,5025.568,3185.381,5025.035,3184Z" transform="translate(-4759.905 -3053.304)"/><path class="b" d="M4907.4,3108.8a1.19,1.19,0,0,1-1.4,1.4V3106C4908.1,3106.119,4907.192,3107.742,4907.4,3108.8Z" transform="translate(-4807.783 -3084.709)"/><path class="b" d="M5040,3178.437v-1.4c1.381.534,3.55-1.3,4.206,1.4Z" transform="translate(-4753.833 -3056.156)"/><path class="b" d="M5101,3159.034c1.38.535,3.551-1.3,4.208,1.4C5103.827,3159.9,5101.659,3161.737,5101,3159.034Z" transform="translate(-4729.272 -3063.403)"/><path class="b" d="M5100.413,3168.208c-1.922-1.41-1.922-2.8,0-4.207Z" transform="translate(-4730.088 -3061.357)"/><path class="b" d="M5010.035,3160c2.7.657.868,2.828,1.4,4.208C5008.734,3163.551,5010.567,3161.38,5010.035,3160Z" transform="translate(-4765.944 -3062.967)"/><path class="b" d="M4907.85,3105.439a1.189,1.189,0,0,0-1.4,1.4c-1.982-.374-1.892-1.664-.755-2.6C4906.434,3103.623,4907.812,3103.792,4907.85,3105.439Z" transform="translate(-4808.229 -3085.55)"/><path class="b" d="M5089,3183.4c-.1-1.316.8-1.481,1.741-1.376a1.09,1.09,0,0,1,1.064,1.376Z" transform="translate(-4734.105 -3054.109)"/><path class="b" d="M5056.007,3189c2.1.119,1.19,1.742,1.4,2.805C5055.312,3191.686,5056.218,3190.063,5056.007,3189Z" transform="translate(-4747.397 -3051.291)"/><path class="b" d="M4847.806,3116.006c-.119,2.1-1.741,1.191-2.806,1.4C4845.12,3115.31,4846.743,3116.217,4847.806,3116.006Z" transform="translate(-4832.343 -3080.688)"/><path class="b" d="M5030.008,3191h2.806c.1,1.316-.8,1.481-1.743,1.376A1.089,1.089,0,0,1,5030.008,3191Z" transform="translate(-4757.867 -3050.486)"/><path class="b" d="M4843.807,3118.006c-.12,2.1-1.743,1.191-2.807,1.4C4841.12,3117.31,4842.741,3118.218,4843.807,3118.006Z" transform="translate(-4833.953 -3079.883)"/><path class="b" d="M5057.007,3191c2.1.119,1.191,1.743,1.4,2.805C5056.311,3193.686,5057.218,3192.063,5057.007,3191Z" transform="translate(-4746.993 -3050.486)"/><path class="b" d="M5058.006,3193c2.1.12,1.191,1.742,1.4,2.805C5057.31,3195.686,5058.217,3194.063,5058.006,3193Z" transform="translate(-4746.59 -3049.68)"/><path class="b" d="M5119.5,3149.6c-.138.218-.309.761-.517.775-.621.043-1.43.354-1.791-.452-.085-.189.315-.861.488-.858C5118.3,3149.067,5119.083,3148.631,5119.5,3149.6Z" transform="translate(-4722.759 -3067.409)"/><path class="b" d="M5107,3156.408c.12-2.1,1.743-1.19,2.806-1.4C5109.687,3157.1,5108.063,3156.2,5107,3156.408Z" transform="translate(-4726.855 -3064.986)"/><path class="b" d="M4983,3160.8c.213-1.063-.7-2.685,1.4-2.805C4984.2,3159.063,4985.1,3160.687,4983,3160.8Z" transform="translate(-4776.788 -3063.772)"/><path class="b" d="M5003.006,3158c2.1.12,1.191,1.742,1.4,2.805C5002.31,3160.687,5003.218,3159.063,5003.006,3158Z" transform="translate(-4768.734 -3063.772)"/><path class="b" d="M5098,3159.4c-.1-1.316.8-1.481,1.741-1.376a1.087,1.087,0,0,1,1.063,1.376Z" transform="translate(-4730.484 -3063.772)"/><path class="b" d="M5098.4,3161.814c-1.316.1-1.48-.8-1.376-1.743a1.09,1.09,0,0,1,1.376-1.062Z" transform="translate(-4730.882 -3063.378)"/><path class="b" d="M5100.807,3163.407c-1.063-.211-2.688.7-2.807-1.4C5099.063,3162.218,5100.686,3161.31,5100.807,3163.407Z" transform="translate(-4730.48 -3062.167)"/><path class="b" d="M4978.009,3163h2.8c.1,1.316-.8,1.481-1.742,1.375A1.089,1.089,0,0,1,4978.009,3163Z" transform="translate(-4778.804 -3061.759)"/><path class="b" d="M5019,3165c1.315-.1,1.481.8,1.376,1.742a1.09,1.09,0,0,1-1.376,1.063Z" transform="translate(-4762.288 -3060.956)"/><path class="b" d="M5083,3193.4c-.1-1.315.8-1.481,1.742-1.376a1.09,1.09,0,0,1,1.063,1.376Z" transform="translate(-4736.522 -3050.083)"/><path class="b" d="M5100.006,3177.805c.211-1.063-.7-2.686,1.4-2.805C5101.2,3176.063,5102.1,3177.686,5100.006,3177.805Z" transform="translate(-4729.682 -3056.928)"/><path class="b" d="M5046,3178.4c-.1-1.315.8-1.48,1.741-1.375a1.089,1.089,0,0,1,1.063,1.375Z" transform="translate(-4751.419 -3056.123)"/><path class="b" d="M5048,3178.006c1.064.212,2.688-.7,2.807,1.4C5049.743,3179.2,5048.12,3180.1,5048,3178.006Z" transform="translate(-4750.611 -3055.726)"/><path class="b" d="M5095,3181.408c.119-2.1,1.742-1.191,2.806-1.4C5097.687,3182.1,5096.063,3181.2,5095,3181.408Z" transform="translate(-4731.689 -3054.92)"/><path class="b" d="M5093.006,3183.806c.212-1.064-.7-2.687,1.4-2.805C5094.2,3182.063,5095.1,3183.687,5093.006,3183.806Z" transform="translate(-4732.499 -3054.513)"/><path class="b" d="M5052,3182.006c1.063.211,2.688-.7,2.807,1.4C5053.743,3183.2,5052.119,3184.1,5052,3182.006Z" transform="translate(-4749.002 -3054.115)"/><path class="b" d="M4906.4,3108v1.4H4905C4904.967,3108.433,4905.432,3107.966,4906.4,3108Z" transform="translate(-4808.187 -3083.904)"/><path class="b" d="M4844.4,3117a1.19,1.19,0,0,1-1.4,1.4A1.19,1.19,0,0,1,4844.4,3117Z" transform="translate(-4833.148 -3080.28)"/><path class="b" d="M4984.4,3147a1.189,1.189,0,0,1-1.4,1.4A1.189,1.189,0,0,1,4984.4,3147Z" transform="translate(-4776.783 -3068.202)"/><path class="b" d="M4983.4,3148q.053,1.456-1.4,1.4Q4981.946,3147.948,4983.4,3148Z" transform="translate(-4777.187 -3067.799)"/><path class="b" d="M5098,3179.4a1.189,1.189,0,0,1,1.4-1.4A1.189,1.189,0,0,1,5098,3179.4Z" transform="translate(-4730.481 -3055.72)"/><path class="b" d="M5021,3179q1.456-.053,1.4,1.4Q5020.947,3180.456,5021,3179Z" transform="translate(-4761.483 -3055.318)"/><path class="b" d="M5050,3179a1.189,1.189,0,0,1,1.4,1.4A1.189,1.189,0,0,1,5050,3179Z" transform="translate(-4749.806 -3055.318)"/><path class="b" d="M5097,3180.4a1.189,1.189,0,0,1,1.4-1.4Q5098.455,3180.456,5097,3180.4Z" transform="translate(-4730.884 -3055.318)"/><path class="b" d="M5042.4,3181.4a1.191,1.191,0,0,1-1.4-1.4A1.191,1.191,0,0,1,5042.4,3181.4Z" transform="translate(-4753.431 -3054.915)"/><path class="b" d="M5022,3181q1.456-.052,1.4,1.4A1.189,1.189,0,0,1,5022,3181Z" transform="translate(-4761.08 -3054.512)"/><path class="b" d="M5051,3181c.972-.035,1.437.432,1.4,1.4A1.189,1.189,0,0,1,5051,3181Z" transform="translate(-4749.405 -3054.512)"/><path class="b" d="M5070,3182.4q-.056-1.455,1.4-1.4A1.189,1.189,0,0,1,5070,3182.4Z" transform="translate(-4741.756 -3054.512)"/><path class="b" d="M5073,3181q1.456-.052,1.4,1.4A1.189,1.189,0,0,1,5073,3181Z" transform="translate(-4740.547 -3054.512)"/><path class="b" d="M5023,3182a1.189,1.189,0,0,1,1.4,1.4C5023.433,3183.438,5022.967,3182.971,5023,3182Z" transform="translate(-4760.677 -3054.11)"/><path class="b" d="M5069,3183.4a1.19,1.19,0,0,1,1.4-1.4A1.19,1.19,0,0,1,5069,3183.4Z" transform="translate(-4742.158 -3054.11)"/><path class="b" d="M5074,3182a1.19,1.19,0,0,1,1.4,1.4C5074.432,3183.438,5073.966,3182.971,5074,3182Z" transform="translate(-4740.144 -3054.11)"/><path class="b" d="M5101,3175.4q-.054-1.456,1.4-1.4Q5102.455,3175.457,5101,3175.4Z" transform="translate(-4729.274 -3057.33)"/><path class="b" d="M5019.4,3169q.051,1.456-1.4,1.4Q5017.948,3168.947,5019.4,3169Z" transform="translate(-4762.692 -3059.344)"/><path class="b" d="M5101.4,3168.4a1.188,1.188,0,0,1-1.4-1.4A1.188,1.188,0,0,1,5101.4,3168.4Z" transform="translate(-4729.677 -3060.149)"/><path class="b" d="M5024,3183a1.188,1.188,0,0,1,1.4,1.4A1.188,1.188,0,0,1,5024,3183Z" transform="translate(-4760.277 -3053.708)"/><path class="b" d="M5041,3184.4a1.19,1.19,0,0,1,1.4-1.4A1.19,1.19,0,0,1,5041,3184.4Z" transform="translate(-4753.431 -3053.708)"/><path class="b" d="M4975,3163h1.4c.052.682-.09,1.3-.929,1.112C4975.243,3164.061,4975.154,3163.387,4975,3163Z" transform="translate(-4780.004 -3061.759)"/><path class="b" d="M5068,3184.4c-.034-.971.432-1.437,1.4-1.4A1.19,1.19,0,0,1,5068,3184.4Z" transform="translate(-4742.559 -3053.708)"/><path class="b" d="M5075,3183q1.455-.052,1.4,1.4A1.189,1.189,0,0,1,5075,3183Z" transform="translate(-4739.742 -3053.708)"/><path class="b" d="M4981,3163.4q-.054-1.456,1.4-1.4Q4982.456,3163.456,4981,3163.4Z" transform="translate(-4777.589 -3062.162)"/><path class="b" d="M5040,3185.4a1.189,1.189,0,0,1,1.4-1.4Q5041.457,3185.458,5040,3185.4Z" transform="translate(-4753.833 -3053.305)"/><path class="b" d="M5004,3161h1.4c.05.682-.091,1.3-.93,1.113C5004.243,3162.062,5004.155,3161.387,5004,3161Z" transform="translate(-4768.326 -3062.564)"/><path class="b" d="M4982,3161.4q-.056-1.456,1.4-1.4Q4983.455,3161.457,4982,3161.4Z" transform="translate(-4777.187 -3062.968)"/><path class="b" d="M5009,3159q1.458-.052,1.4,1.4A1.19,1.19,0,0,1,5009,3159Z" transform="translate(-4766.314 -3063.37)"/><path class="b" d="M5039,3186.4q-.053-1.456,1.4-1.4C5040.438,3185.971,5039.973,3186.438,5039,3186.4Z" transform="translate(-4754.236 -3052.902)"/><path class="b" d="M5066,3186.4q-.051-1.456,1.4-1.4A1.189,1.189,0,0,1,5066,3186.4Z" transform="translate(-4743.364 -3052.902)"/><path class="b" d="M5038,3187.4a1.19,1.19,0,0,1,1.4-1.4Q5039.455,3187.457,5038,3187.4Z" transform="translate(-4754.637 -3052.499)"/><path class="b" d="M5065,3187.4a1.19,1.19,0,0,1,1.4-1.4Q5066.455,3187.457,5065,3187.4Z" transform="translate(-4743.768 -3052.499)"/><path class="b" d="M5090.4,3187.4c-.972.035-1.437-.432-1.4-1.4A1.191,1.191,0,0,1,5090.4,3187.4Z" transform="translate(-4734.104 -3052.499)"/><path class="b" d="M5005,3160.4a1.19,1.19,0,0,1,1.4-1.4A1.19,1.19,0,0,1,5005,3160.4Z" transform="translate(-4767.925 -3063.37)"/><path class="b" d="M5037,3188.4a1.189,1.189,0,0,1,1.4-1.4Q5038.456,3188.457,5037,3188.4Z" transform="translate(-4755.042 -3052.097)"/><path class="b" d="M5055,3187c.973-.034,1.438.433,1.4,1.4A1.19,1.19,0,0,1,5055,3187Z" transform="translate(-4747.794 -3052.097)"/><path class="b" d="M5091.4,3188.4q-1.456.051-1.4-1.4A1.19,1.19,0,0,1,5091.4,3188.4Z" transform="translate(-4733.703 -3052.097)"/><path class="b" d="M5002,3157q1.456-.052,1.4,1.4A1.189,1.189,0,0,1,5002,3157Z" transform="translate(-4769.133 -3064.175)"/><path class="b" d="M4984,3158.4a1.189,1.189,0,0,1,1.4-1.4A1.189,1.189,0,0,1,4984,3158.4Z" transform="translate(-4776.38 -3064.175)"/><path class="b" d="M5001,3156a1.189,1.189,0,0,1,1.4,1.4A1.189,1.189,0,0,1,5001,3156Z" transform="translate(-4769.535 -3064.578)"/><path class="b" d="M4998.842,3156.083c.161.161.46.391.434.443a1.9,1.9,0,0,1-.636.82c-.588.287-.877,0-.592-.59C4998.187,3156.469,4998.572,3156.3,4998.842,3156.083Z" transform="translate(-4770.769 -3064.545)"/><path class="b" d="M5032,3191.4q-.054-1.456,1.4-1.4A1.189,1.189,0,0,1,5032,3191.4Z" transform="translate(-4757.055 -3050.889)"/><path class="b" d="M5099,3178.4a1.19,1.19,0,0,1,1.4-1.4A1.19,1.19,0,0,1,5099,3178.4Z" transform="translate(-4730.078 -3056.123)"/><path class="b" d="M5085,3193a1.189,1.189,0,0,1,1.4,1.4A1.189,1.189,0,0,1,5085,3193Z" transform="translate(-4735.716 -3049.682)"/><path class="b" d="M5086,3194a1.188,1.188,0,0,1,1.4,1.4A1.188,1.188,0,0,1,5086,3194Z" transform="translate(-4735.313 -3049.279)"/><path class="b" d="M5090,3195.4q-.054-1.456,1.4-1.4A1.189,1.189,0,0,1,5090,3195.4Z" transform="translate(-4733.703 -3049.279)"/><path class="b" d="M4985,3157.4a1.19,1.19,0,0,1,1.4-1.4Q4986.458,3157.457,4985,3157.4Z" transform="translate(-4775.978 -3064.578)"/><path class="b" d="M5000,3155a1.191,1.191,0,0,1,1.4,1.4Q4999.947,3156.457,5000,3155Z" transform="translate(-4769.938 -3064.98)"/><path class="b" d="M4986,3156.4a1.189,1.189,0,0,1,1.4-1.4Q4987.454,3156.457,4986,3156.4Z" transform="translate(-4775.573 -3064.98)"/><path class="b" d="M5087,3195a1.19,1.19,0,0,1,1.4,1.4A1.19,1.19,0,0,1,5087,3195Z" transform="translate(-4734.91 -3048.876)"/><path class="b" d="M5089,3196.4a1.19,1.19,0,0,1,1.4-1.4A1.19,1.19,0,0,1,5089,3196.4Z" transform="translate(-4734.104 -3048.876)"/><path class="b" d="M5059,3196c.972-.035,1.438.432,1.4,1.4A1.19,1.19,0,0,1,5059,3196Z" transform="translate(-4746.184 -3048.473)"/><path class="b" d="M5061,3197.4a1.189,1.189,0,0,1,1.4-1.4A1.189,1.189,0,0,1,5061,3197.4Z" transform="translate(-4745.378 -3048.473)"/><path class="b" d="M5081,3197a1.19,1.19,0,0,1,1.4,1.4A1.19,1.19,0,0,1,5081,3197Z" transform="translate(-4737.325 -3048.07)"/><path class="b" d="M4976.4,3155q.053,1.456-1.4,1.4Q4974.947,3154.948,4976.4,3155Z" transform="translate(-4780.003 -3064.98)"/><path class="b" d="M5109,3155.4a1.189,1.189,0,0,1,1.4-1.4Q5110.454,3155.457,5109,3155.4Z" transform="translate(-4726.053 -3065.383)"/><path class="b" d="M4999,3154a1.189,1.189,0,0,1,1.4,1.4Q4998.947,3155.456,4999,3154Z" transform="translate(-4770.339 -3065.383)"/><path class="b" d="M5111,3154.4q-.053-1.456,1.4-1.4A1.189,1.189,0,0,1,5111,3154.4Z" transform="translate(-4725.248 -3065.787)"/><path class="b" d="M4998,3153a1.189,1.189,0,0,1,1.4,1.4A1.189,1.189,0,0,1,4998,3153Z" transform="translate(-4770.744 -3065.787)"/><path class="b" d="M5153.127,3247.9l-.5.5a4.555,4.555,0,0,1-.44-.941c-.024-.116.285-.306.44-.461Z" transform="translate(-4708.665 -3027.94)"/><path class="b" d="M4996,3153.33c-.052-.682.088-1.3.928-1.112.231.051.319.725.474,1.112Z" transform="translate(-4771.552 -3066.115)"/><path class="b" d="M5067,3185.4a1.19,1.19,0,0,1,1.4-1.4Q5068.456,3185.458,5067,3185.4Z" transform="translate(-4742.962 -3053.305)"/><path class="b" d="M5040.819,3180.013a1.189,1.189,0,0,0-1.4,1.4h-2.8a1628.32,1628.32,0,0,1-2.806-2.805c.033-.97-.433-1.437-1.4-1.4a1.19,1.19,0,0,0-1.4-1.4V3173h2.807q-.053,1.456,1.4,1.4-.053,1.456,1.4,1.4-.054,1.456,1.4,1.4h1.4a1.189,1.189,0,0,0,1.4,1.4Z" transform="translate(-4757.456 -3057.733)"/><path class="b" d="M5033.809,3173.4H5031c-.1-1.317.8-1.481,1.741-1.376A1.09,1.09,0,0,1,5033.809,3173.4Z" transform="translate(-4757.458 -3058.136)"/><path class="b" d="M5038.4,3177.4a1.188,1.188,0,0,1-1.4-1.4Q5038.458,3175.949,5038.4,3177.4Z" transform="translate(-4755.042 -3056.526)"/><path class="b" d="M5033,3177q1.456-.053,1.4,1.4Q5032.947,3178.456,5033,3177Z" transform="translate(-4756.652 -3056.123)"/><path class="b" d="M5034.4,3174.4q-1.456.052-1.4-1.4Q5034.457,3172.948,5034.4,3174.4Z" transform="translate(-4756.652 -3057.733)"/><path class="b" d="M5038,3178.4V3177h1.4A1.189,1.189,0,0,1,5038,3178.4Z" transform="translate(-4754.637 -3056.122)"/><path class="b" d="M5031,3175a1.189,1.189,0,0,1,1.4,1.4A1.189,1.189,0,0,1,5031,3175Z" transform="translate(-4757.458 -3056.928)"/><path class="b" d="M5032,3176a1.19,1.19,0,0,1,1.4,1.4Q5031.947,3177.456,5032,3176Z" transform="translate(-4757.055 -3056.526)"/><path class="b" d="M5034,3178a1.189,1.189,0,0,1,1.4,1.4A1.189,1.189,0,0,1,5034,3178Z" transform="translate(-4756.249 -3055.72)"/><path class="b" d="M5036.4,3176.4c-.972.035-1.437-.432-1.4-1.4A1.19,1.19,0,0,1,5036.4,3176.4Z" transform="translate(-4755.846 -3056.928)"/><path class="b" d="M5035.4,3175.4a1.189,1.189,0,0,1-1.4-1.4Q5035.457,3173.95,5035.4,3175.4Z" transform="translate(-4756.249 -3057.33)"/><path class="b" d="M4905,3109h1.4a1.189,1.189,0,0,1-1.4,1.4Z" transform="translate(-4808.187 -3083.501)"/><path class="b" d="M4913.208,3108.414H4909C4910.411,3106.492,4911.8,3106.492,4913.208,3108.414Z" transform="translate(-4806.577 -3084.316)"/></g></svg>