<svg xmlns="http://www.w3.org/2000/svg" width="119.915" height="119.915" viewBox="0 0 119.915 119.915"><defs><style>.a{fill:#2d61a9;}.b{fill:#fff;}</style></defs><g transform="translate(-833.448 -3753.248)"><circle class="a" cx="42.396" cy="42.396" r="42.396" transform="translate(833.448 3813.206) rotate(-45)"/><path class="b" d="M280.9,1157.625l-4.452-8.863a2.971,2.971,0,0,0-4.027-1.185l-2.6,1.308a2.828,2.828,0,0,1-2.66-.028c-4.049-2.317-7.227-8.809-7.227-8.809s-3.311-6.426-2.752-11.057a2.828,2.828,0,0,1,1.566-2.151l2.6-1.308a2.971,2.971,0,0,0,1.453-3.938l-4.452-8.863a2.972,2.972,0,0,0-4.027-1.185l-1.863.936a11.007,11.007,0,0,0-6.075,8.365c-.611,4.943-.074,12.786,5.243,23.371s11.288,15.7,15.618,18.159a11.006,11.006,0,0,0,10.338.121l1.863-.936a3.274,3.274,0,0,0,.331-.194l.025-.017A2.937,2.937,0,0,0,280.9,1157.625Z" transform="translate(629.422 2675.667)"/></g></svg>