<svg xmlns="http://www.w3.org/2000/svg" width="25.788" height="25.789" viewBox="0 0 25.788 25.789"><defs><style>.a{fill:none;}.b{fill:#1c85c7;}</style></defs><g transform="translate(-1546.391 -635.388)"><rect class="a" width="25.788" height="25.788" transform="translate(1546.391 635.389)"/><path class="b" d="M1572.015,658.759l-5.328-5.328a11.036,11.036,0,0,0,2.255-6.769,11.213,11.213,0,0,0-11.152-11.274h-.117a11.214,11.214,0,0,0-11.282,11.144v.137a11.213,11.213,0,0,0,11.142,11.284h.14a11.035,11.035,0,0,0,6.769-2.255l5.328,5.328Zm-22.4-12.089a7.981,7.981,0,0,1,7.9-8.057h.153a7.981,7.981,0,0,1,8.06,7.9q0,.078,0,.156a7.981,7.981,0,0,1-7.9,8.06h-.158a7.981,7.981,0,0,1-8.057-7.9Q1549.615,646.748,1549.616,646.67Z" transform="translate(0 0)"/></g></svg>