<svg xmlns="http://www.w3.org/2000/svg" width="133.742" height="66.839" viewBox="0 0 133.742 66.839"><defs><style>.a,.b{fill:#14588d;}.a{stroke:#14588d;stroke-miterlimit:10;stroke-width:1.459px;}</style></defs><g transform="translate(-627.699 -89.31)"><g transform="translate(628.439 90.071)"><path class="a" d="M670.643,116.762a.046.046,0,0,0-.058,0l-42.127,15.808c-.021,0-.026-.012-.01-.027l31.261-28.756a.047.047,0,0,1,.059,0l11.312,8.991a.046.046,0,0,0,.059,0l24.487-22.689a.045.045,0,0,1,.058,0s22.942,20.151,33.895,30.61c6.911,6.6,24.1,11.093,24.1,11.093l.076.018,6.93,1.552c.02.008.019.012,0,.011,0,0-26.676-2.448-37.23-13.677-8.323-8.852-27.794-25.229-27.794-25.229a.044.044,0,0,0-.058,0l-21.634,20.415a.038.038,0,0,0,0,.054l34.725,17.445c.021.006.02.008,0,0Zm-2.29-1.414a.041.041,0,0,0,0-.056l-8.316-7.286a.044.044,0,0,0-.058,0l-22.7,21.047c-.016.014-.011.023.01.018Z" transform="translate(-628.439 -90.071)"/><path class="a" d="M670.643,116.762a.046.046,0,0,0-.058,0l-42.127,15.808c-.021,0-.026-.012-.01-.027l31.261-28.756a.047.047,0,0,1,.059,0l11.312,8.991a.046.046,0,0,0,.059,0l24.487-22.689a.045.045,0,0,1,.058,0s22.942,20.151,33.895,30.61c6.911,6.6,24.1,11.093,24.1,11.093l.076.018,6.93,1.552c.02.008.019.012,0,.011,0,0-26.676-2.448-37.23-13.677-8.323-8.852-27.794-25.229-27.794-25.229a.044.044,0,0,0-.058,0l-21.634,20.415a.038.038,0,0,0,0,.054l34.725,17.445c.021.006.02.008,0,0Zm-2.29-1.414a.041.041,0,0,0,0-.056l-8.316-7.286a.044.044,0,0,0-.058,0l-22.7,21.047c-.016.014-.011.023.01.018Z" transform="translate(-628.439 -90.071)"/></g><g transform="translate(633.202 141.013)"><g transform="translate(0)"><path class="b" d="M643.383,146.427a.206.206,0,0,1-.338.047,3.449,3.449,0,0,0-.472-.37,5.712,5.712,0,0,0-.944-.493,6.225,6.225,0,0,0-1.14-.356,5.964,5.964,0,0,0-1.292-.136,4.044,4.044,0,0,0-2.545.65,2.159,2.159,0,0,0-.808,1.78,2.02,2.02,0,0,0,.228,1.006,1.918,1.918,0,0,0,.726.682,5.421,5.421,0,0,0,1.227.493c.489.139,1.068.287,1.738.44a18.414,18.414,0,0,1,2.089.577,6.127,6.127,0,0,1,1.592.808,3.261,3.261,0,0,1,1.008,1.174,3.8,3.8,0,0,1,.342,1.7,3.9,3.9,0,0,1-.415,1.857,3.724,3.724,0,0,1-1.144,1.3,5.012,5.012,0,0,1-1.711.755,9.034,9.034,0,0,1-2.134.239,9.87,9.87,0,0,1-3.261-.534,14.692,14.692,0,0,1-2.571-1.405.309.309,0,0,1-.093-.4l.628-1.109a.211.211,0,0,1,.342-.053,6.187,6.187,0,0,0,.667.525,7.063,7.063,0,0,0,1.213.639,9.078,9.078,0,0,0,1.468.463,7.455,7.455,0,0,0,1.647.178,4.575,4.575,0,0,0,2.472-.565,1.886,1.886,0,0,0,.88-1.7,1.862,1.862,0,0,0-.283-1.059,2.408,2.408,0,0,0-.826-.745,6.376,6.376,0,0,0-1.354-.555q-.808-.242-1.834-.493a18.374,18.374,0,0,1-1.993-.588,5.528,5.528,0,0,1-1.437-.755,2.831,2.831,0,0,1-.867-1.067,3.544,3.544,0,0,1-.3-1.509,4.215,4.215,0,0,1,.4-1.889,3.929,3.929,0,0,1,1.108-1.381,4.838,4.838,0,0,1,1.7-.851,7.766,7.766,0,0,1,2.134-.283,7.653,7.653,0,0,1,2.728.463,11.548,11.548,0,0,1,1.928,1.078.309.309,0,0,1,.09.4Z" transform="translate(-633.429 -143.439)"/><g transform="translate(12.001 0.105)"><path class="b" d="M653.064,143.893a.176.176,0,0,1,.175-.259h1.222a.435.435,0,0,1,.378.26l1.773,4.658c.054.143.143.144.2,0l1.794-4.659a.436.436,0,0,1,.378-.26h1.227a.176.176,0,0,1,.176.259l-2.376,5.961a.8.8,0,0,0,0,.515L660.356,156c.058.141.153.141.209,0l4.826-12.187a.442.442,0,0,1,.381-.259h1.5a.172.172,0,0,1,.171.257l-6.011,14.371a.455.455,0,0,1-.385.258h-1.081a.457.457,0,0,1-.387-.257l-2.74-6.508c-.059-.141-.156-.141-.217,0l-2.76,6.509a.457.457,0,0,1-.388.257H652.4a.455.455,0,0,1-.386-.258l-5.993-14.37a.173.173,0,0,1,.171-.258h1.478a.443.443,0,0,1,.381.259L652.9,156c.056.142.151.142.209,0l2.323-5.626a.8.8,0,0,0,0-.516Z" transform="translate(-646.001 -143.549)"/></g><g transform="translate(35.498 0.105)"><path class="b" d="M670.9,158.434a.28.28,0,0,1-.279-.279V143.828a.28.28,0,0,1,.279-.279h1.327a.28.28,0,0,1,.279.279v14.328a.28.28,0,0,1-.279.279Z" transform="translate(-670.617 -143.549)"/></g><g transform="translate(39.871)"><path class="b" d="M685.153,146.427a.206.206,0,0,1-.338.047,3.459,3.459,0,0,0-.472-.37,5.716,5.716,0,0,0-.944-.493,6.224,6.224,0,0,0-1.14-.356,5.962,5.962,0,0,0-1.291-.136,4.04,4.04,0,0,0-2.545.65,2.159,2.159,0,0,0-.808,1.78,2.009,2.009,0,0,0,.228,1.006,1.907,1.907,0,0,0,.724.682,5.413,5.413,0,0,0,1.227.493c.488.139,1.067.287,1.737.44a18.429,18.429,0,0,1,2.09.577,6.119,6.119,0,0,1,1.591.808,3.261,3.261,0,0,1,1.008,1.174,3.8,3.8,0,0,1,.342,1.7,3.91,3.91,0,0,1-.414,1.857,3.737,3.737,0,0,1-1.145,1.3,5.007,5.007,0,0,1-1.71.755,9.049,9.049,0,0,1-2.135.239,9.869,9.869,0,0,1-3.261-.534,14.67,14.67,0,0,1-2.57-1.405.308.308,0,0,1-.094-.4l.629-1.109a.211.211,0,0,1,.342-.053,6.123,6.123,0,0,0,.666.525,7.093,7.093,0,0,0,1.213.639,9.106,9.106,0,0,0,1.468.463,7.455,7.455,0,0,0,1.647.178,4.57,4.57,0,0,0,2.472-.565,1.886,1.886,0,0,0,.88-1.7,1.854,1.854,0,0,0-.283-1.059,2.4,2.4,0,0,0-.826-.745,6.378,6.378,0,0,0-1.354-.555q-.808-.242-1.834-.493a18.378,18.378,0,0,1-1.993-.588,5.527,5.527,0,0,1-1.436-.755,2.841,2.841,0,0,1-.867-1.067,3.546,3.546,0,0,1-.3-1.509,4.215,4.215,0,0,1,.4-1.889,3.93,3.93,0,0,1,1.108-1.381,4.834,4.834,0,0,1,1.7-.851,7.76,7.76,0,0,1,2.134-.283,7.644,7.644,0,0,1,2.727.463,11.505,11.505,0,0,1,1.928,1.078.309.309,0,0,1,.091.4Z" transform="translate(-675.199 -143.439)"/></g><g transform="translate(52.638)"><path class="b" d="M698.527,146.427a.206.206,0,0,1-.338.047,3.455,3.455,0,0,0-.471-.37,5.724,5.724,0,0,0-.944-.493,6.222,6.222,0,0,0-1.14-.356,5.96,5.96,0,0,0-1.291-.136,4.045,4.045,0,0,0-2.546.65,2.162,2.162,0,0,0-.807,1.78,2.009,2.009,0,0,0,.228,1.006,1.908,1.908,0,0,0,.724.682,5.413,5.413,0,0,0,1.228.493c.488.139,1.067.287,1.737.44a18.355,18.355,0,0,1,2.089.577,6.11,6.11,0,0,1,1.592.808,3.26,3.26,0,0,1,1.008,1.174,3.8,3.8,0,0,1,.342,1.7,3.91,3.91,0,0,1-.414,1.857,3.736,3.736,0,0,1-1.146,1.3,5,5,0,0,1-1.711.755,9.035,9.035,0,0,1-2.134.239,9.87,9.87,0,0,1-3.261-.534,14.694,14.694,0,0,1-2.571-1.405.309.309,0,0,1-.093-.4l.628-1.109a.211.211,0,0,1,.342-.053,6.187,6.187,0,0,0,.667.525,7.1,7.1,0,0,0,1.213.639,9.106,9.106,0,0,0,1.468.463,7.455,7.455,0,0,0,1.647.178,4.57,4.57,0,0,0,2.472-.565,1.886,1.886,0,0,0,.88-1.7,1.854,1.854,0,0,0-.283-1.059,2.4,2.4,0,0,0-.826-.745,6.376,6.376,0,0,0-1.354-.555q-.808-.242-1.834-.493a18.362,18.362,0,0,1-1.993-.588,5.529,5.529,0,0,1-1.437-.755,2.841,2.841,0,0,1-.867-1.067,3.548,3.548,0,0,1-.3-1.509,4.214,4.214,0,0,1,.4-1.889,3.93,3.93,0,0,1,1.108-1.381,4.837,4.837,0,0,1,1.7-.851,7.772,7.772,0,0,1,2.135-.283,7.648,7.648,0,0,1,2.727.463,11.551,11.551,0,0,1,1.928,1.078.309.309,0,0,1,.091.4Z" transform="translate(-688.573 -143.439)"/></g><g transform="translate(72.013 0.105)"><path class="b" d="M709.15,158.434a.28.28,0,0,1-.279-.279V143.828a.28.28,0,0,1,.279-.279h5.545c.154,0,.4.014.556.031a5.208,5.208,0,0,1,1.419.367,4.569,4.569,0,0,1,1.341,1.038,4.97,4.97,0,0,1,.894,1.458,4.506,4.506,0,0,1,.323,1.655,4.853,4.853,0,0,1-.305,1.709,4.728,4.728,0,0,1-.849,1.468,4.239,4.239,0,0,1-1.3,1.026,5.015,5.015,0,0,1-1.4.358c-.153.016-.4.031-.556.031h-4.934a.279.279,0,0,0-.279.278v5.188a.28.28,0,0,1-.279.279Zm.455-6.694a.279.279,0,0,0,.279.279H714.8c.153,0,.4-.013.556-.031a3.991,3.991,0,0,0,1.146-.3,3.4,3.4,0,0,0,1.071-.892,4.194,4.194,0,0,0,.68-1.257,4.394,4.394,0,0,0,.242-1.437,3.894,3.894,0,0,0-.283-1.457,4.138,4.138,0,0,0-.766-1.236,3.8,3.8,0,0,0-1.123-.86,3.9,3.9,0,0,0-1.1-.292c-.153-.017-.4-.031-.556-.031h-4.788a.279.279,0,0,0-.279.279Z" transform="translate(-708.871 -143.549)"/></g><g transform="translate(82.483 0.105)"><path class="b" d="M726.052,143.8a.462.462,0,0,1,.389-.256h.072a.459.459,0,0,1,.388.256l6.175,14.374a.17.17,0,0,1-.169.256h-.218a.458.458,0,0,1-.388-.257l-1.984-4.623a.458.458,0,0,0-.389-.257h-6.9a.458.458,0,0,0-.388.257l-1.984,4.623a.458.458,0,0,1-.389.257h-.236a.17.17,0,0,1-.169-.256Zm3.649,8.864a.17.17,0,0,0,.169-.256l-3.284-7.684c-.06-.14-.159-.141-.22,0l-3.3,7.684a.17.17,0,0,0,.169.256Z" transform="translate(-719.839 -143.549)"/></g><g transform="translate(96.623 0.023)"><path class="b" d="M734.653,150.884a7.886,7.886,0,0,1,.474-2.663,7.532,7.532,0,0,1,1.374-2.379,7.009,7.009,0,0,1,2.212-1.719,6.546,6.546,0,0,1,2.988-.66,6.063,6.063,0,0,1,3.384.91,8.943,8.943,0,0,1,1.913,2.1.235.235,0,0,1-.1.351l-.125.058a.322.322,0,0,1-.4-.119,7.563,7.563,0,0,0-.828-1.1,4.922,4.922,0,0,0-1.2-.881A5.356,5.356,0,0,0,743,144.3a6.639,6.639,0,0,0-1.386-.146,5.711,5.711,0,0,0-2.65.6A6.2,6.2,0,0,0,737,146.314a6.815,6.815,0,0,0-1.2,2.179,7.614,7.614,0,0,0-.41,2.452,7.2,7.2,0,0,0,.483,2.62,7.11,7.11,0,0,0,1.332,2.212,6.474,6.474,0,0,0,2,1.522,5.542,5.542,0,0,0,2.472.565,6.172,6.172,0,0,0,2.873-.723,5.7,5.7,0,0,0,1.277-.933,7.506,7.506,0,0,0,.86-1.128.352.352,0,0,1,.408-.136l.128.05a.235.235,0,0,1,.123.344,7.084,7.084,0,0,1-.89,1.247,6.5,6.5,0,0,1-1.445,1.09,7.021,7.021,0,0,1-1.688.662,7.234,7.234,0,0,1-1.729.219,5.908,5.908,0,0,1-2.8-.67,7.446,7.446,0,0,1-2.19-1.752,8.107,8.107,0,0,1-1.437-2.451A7.944,7.944,0,0,1,734.653,150.884Z" transform="translate(-734.653 -143.463)"/></g><g transform="translate(112.218 0.105)"><path class="b" d="M751.269,158.434a.28.28,0,0,1-.279-.279V143.828a.28.28,0,0,1,.279-.279h.177a.28.28,0,0,1,.279.279v8.813c0,.154.088.189.194.079l8.711-8.971a.756.756,0,0,1,.473-.2h.346c.153,0,.192.091.085.2l-5.885,6.119a.331.331,0,0,0-.021.42l6.219,7.927c.094.12.047.22-.106.22h-.305a.652.652,0,0,1-.451-.22l-5.859-7.486a.238.238,0,0,0-.367-.019l-2.84,2.914a.791.791,0,0,0-.195.478v4.054a.28.28,0,0,1-.279.279Z" transform="translate(-750.99 -143.549)"/></g></g></g></g></svg>