<svg xmlns="http://www.w3.org/2000/svg" width="86.071" height="86.071" viewBox="0 0 86.071 86.071"><defs><style>.a{fill:#2d61a9;}.b{fill:#fff;}</style></defs><g transform="translate(-1200.544 -3766.737)"><g transform="translate(1200.544 3766.737)"><circle class="a" cx="43.036" cy="43.036" r="43.036"/></g><g transform="translate(1216.785 3782.771)"><path class="b" d="M2028.019,720.366a26.567,26.567,0,1,1,6.827-.894A26.65,26.65,0,0,1,2028.019,720.366Zm.039-50.684a24.185,24.185,0,1,0,23.382,17.993A24.135,24.135,0,0,0,2028.058,669.682Z" transform="translate(-2001.565 -667.37)"/></g><g transform="translate(1224.958 3790.944)"><path class="b" d="M2052.34,736.46a18.335,18.335,0,1,1,4.687-.613A18.351,18.351,0,0,1,2052.34,736.46Zm.024-35.051a16.826,16.826,0,0,0-4.311.565,16.724,16.724,0,1,0,20.45,11.883h0a16.745,16.745,0,0,0-16.139-12.448Z" transform="translate(-2034.011 -699.815)"/></g><g transform="translate(1213.729 3796.391)"><rect class="a" width="57.851" height="12.856" transform="matrix(0.967, -0.256, 0.256, 0.967, 0, 14.815)"/></g><g transform="translate(1213.273 3794.124)"><rect class="b" width="57.851" height="2.457" transform="matrix(0.967, -0.256, 0.256, 0.967, 0, 14.815)"/></g><g transform="translate(1216.749 3807.246)"><rect class="b" width="57.851" height="2.457" transform="matrix(0.967, -0.256, 0.256, 0.967, 0, 14.815)"/></g><g transform="translate(1215.474 3799.087)"><path class="b" d="M1996.359,785.57l3.716-.985.3,1.128-2.336.619.368,1.389,2.183-.578.3,1.119-2.183.578.647,2.445-1.38.365Z" transform="translate(-1996.359 -771.376)"/><path class="b" d="M2015.315,781.414a12.489,12.489,0,0,1,1.8-.611,3.208,3.208,0,0,1,2.093-.043,1.6,1.6,0,0,1,.9,1.124,1.669,1.669,0,0,1-.677,1.782l.007.027a1.588,1.588,0,0,1,1.114.922c.371.635.771,1.379.95,1.583l-1.407.373a7.838,7.838,0,0,1-.8-1.3c-.363-.715-.68-.853-1.241-.714l-.415.11.633,2.39-1.362.361Zm2.056,2.255.541-.144c.686-.182,1-.632.86-1.164-.148-.56-.6-.739-1.235-.58a3.56,3.56,0,0,0-.611.21Z" transform="translate(-2010.54 -768.398)"/><path class="b" d="M2041.011,777.468l-2.237.593.382,1.443,2.5-.662.3,1.128L2038.074,781l-1.611-6.08,3.752-.994.3,1.127-2.373.629.335,1.263,2.237-.593Z" transform="translate(-2026.362 -763.4)"/><path class="b" d="M2060.133,772.4l-2.238.592.382,1.443,2.5-.662.3,1.127-3.879,1.028-1.611-6.08,3.753-.995.3,1.128-2.373.628.334,1.263,2.237-.593Z" transform="translate(-2040.667 -759.609)"/><path class="b" d="M2083.946,768.048a3.632,3.632,0,0,0,1.625-.025c.631-.167.9-.517.791-.914-.1-.379-.447-.519-1.246-.587-1.1-.084-1.91-.469-2.145-1.353-.274-1.038.381-2.061,1.815-2.441a3.853,3.853,0,0,1,1.633-.1l-.013,1.19a2.991,2.991,0,0,0-1.348.048c-.595.158-.812.505-.729.821.1.388.491.469,1.355.558,1.179.113,1.832.538,2.059,1.4.27,1.019-.285,2.093-1.955,2.535a4.113,4.113,0,0,1-1.821.087Z" transform="translate(-2061.109 -754.913)"/><path class="b" d="M2107.362,762.31l-.02,1.675-1.425.378.247-6.572,1.8-.478,3.5,5.58-1.479.392-.882-1.436Zm1.27-1.437-.721-1.189c-.2-.332-.431-.754-.617-1.091l-.018,0c0,.385.037.868.031,1.247l-.019,1.386Z" transform="translate(-2078.321 -750.973)"/><path class="b" d="M2131.654,751.954c-.221-.723-.482-1.6-.716-2.484l-.027.007c.016.826-.007,1.759-.052,2.534l-.112,2.568-1.073.284-1.273-2.182c-.387-.66-.824-1.471-1.179-2.227l-.018,0c.181.831.4,1.776.558,2.546l.5,2.338-1.272.337-1.222-6.183,1.831-.485,1.134,1.872c.375.653.766,1.361,1.09,2.038l.027-.007c-.015-.749-.02-1.607,0-2.336l.114-2.192,1.795-.476,1.945,5.992-1.344.356Z" transform="translate(-2093.174 -743.939)"/><path class="b" d="M2155.146,744.435a11.655,11.655,0,0,1,1.825-.619,3.018,3.018,0,0,1,1.987,0,1.839,1.839,0,0,1,1.022,1.235,2.01,2.01,0,0,1-.177,1.592A2.916,2.916,0,0,1,2158,747.8a3.58,3.58,0,0,1-.477.1l.576,2.174-1.362.361Zm2.093,2.4a2.175,2.175,0,0,0,.469-.086c.731-.194,1.084-.683.919-1.306-.148-.559-.624-.79-1.31-.609a2.421,2.421,0,0,0-.555.2Z" transform="translate(-2115.15 -740.751)"/><path class="b" d="M2175.866,739.852l1.38-.365,1.3,4.925,2.417-.641.306,1.155-3.8,1.006Z" transform="translate(-2130.65 -737.638)"/><path class="b" d="M2198.711,735.69l-2.238.592.383,1.443,2.5-.662.3,1.127-3.879,1.028-1.611-6.08,3.752-.994.3,1.127-2.372.628.334,1.263,2.237-.593Z" transform="translate(-2144.34 -732.145)"/></g><g transform="translate(1221.281 3787.124)"><g transform="translate(0 15.227)"><circle class="b" cx="1.223" cy="1.223" r="1.223"/></g><g transform="translate(1.559 11.691)"><circle class="b" cx="1.223" cy="1.223" r="1.223"/></g><g transform="translate(3.593 8.441)"><circle class="b" cx="1.223" cy="1.223" r="1.223"/></g><g transform="translate(6.188 5.589)"><circle class="b" cx="1.223" cy="1.223" r="1.223"/></g><g transform="translate(9.21 3.279)"><circle class="b" cx="1.223" cy="1.223" r="1.223"/></g><g transform="translate(12.746 1.54)"><circle class="b" cx="1.223" cy="1.223" r="1.223"/></g><g transform="translate(16.653 0.456)"><circle class="b" cx="1.223" cy="1.223" r="1.223"/></g><g transform="translate(20.78)"><circle class="b" cx="1.223" cy="1.223" r="1.223"/></g><g transform="translate(24.743 0.456)"><circle class="b" cx="1.223" cy="1.223" r="1.223"/></g><g transform="translate(28.336 1.679)"><circle class="b" cx="1.223" cy="1.223" r="1.223"/></g><g transform="translate(31.929 3.561)"><circle class="b" cx="1.223" cy="1.223" r="1.223"/></g><g transform="translate(35.18 6.006)"><circle class="b" cx="1.223" cy="1.223" r="1.223"/></g></g><g transform="translate(1227.017 3814.854)"><g transform="translate(0 8.331)"><circle class="b" cx="1.223" cy="1.223" r="1.223"/></g><g transform="translate(3.033 10.725)"><circle class="b" cx="1.223" cy="1.223" r="1.223"/></g><g transform="translate(6.353 12.644)"><circle class="b" cx="1.223" cy="1.223" r="1.223"/></g><g transform="translate(9.982 13.948)"><circle class="b" cx="1.223" cy="1.223" r="1.223"/></g><g transform="translate(13.734 14.573)"><circle class="b" cx="1.223" cy="1.223" r="1.223"/></g><g transform="translate(17.673 14.454)"><circle class="b" cx="1.223" cy="1.223" r="1.223"/></g><g transform="translate(21.632 13.581)"><circle class="b" cx="1.223" cy="1.223" r="1.223"/></g><g transform="translate(25.492 12.051)"><circle class="b" cx="1.223" cy="1.223" r="1.223"/></g><g transform="translate(28.78 9.792)"><circle class="b" cx="1.223" cy="1.223" r="1.223"/></g><g transform="translate(31.382 7.029)"><circle class="b" cx="1.223" cy="1.223" r="1.223"/></g><g transform="translate(33.674 3.683)"><circle class="b" cx="1.223" cy="1.223" r="1.223"/></g><g transform="translate(35.401)"><circle class="b" cx="1.223" cy="1.223" r="1.223"/></g></g></g></svg>