<svg xmlns="http://www.w3.org/2000/svg" width="140.5" height="33.655" viewBox="0 0 140.5 33.655"><defs><style>.a{opacity:0.72;}</style></defs><g class="a"><g transform="translate(0 0)"><path d="M-658,4009.231v-25.159h7.056v9.405H-648v-9.361h7.148v8.584c3.389-8.227,10.323-9.725,15.238-8.738a12.853,12.853,0,0,1,10.39,11.473,12.867,12.867,0,0,1-8.174,13.59,12.739,12.739,0,0,1-10.349-.264,14.047,14.047,0,0,1-7.135-7.592v8h-7.176v-9.512H-651v9.574Zm29.732-6.208c3.379.176,6.158-3.056,6.24-6.021a6.478,6.478,0,0,0-6.117-6.426,6.514,6.514,0,0,0-6.37,6.182C-634.577,4000.028-631.469,4003.239-628.268,4003.023Z" transform="translate(658 -3980.315)"/><path d="M-408.8,3963c-.024,1.044-.793,1.8-1.058,2.758a7.083,7.083,0,0,1-.456.979h12.246v6.21h-5.457v3.249h4.785v6.055h-4.767v3.6h5.43v5.991H-410.9v-23.389l-.19-.049-10,22.01h9.065c.22.414-.036.643-.159.892-.75,1.521-1.519,3.032-2.259,4.558-.117.24-.383.46-.238.789H-432c.978-2.114,1.961-4.226,2.932-6.343q3.635-7.923,7.261-15.853c.754-1.649,1.488-3.307,2.294-5.1h-9.645a1.048,1.048,0,0,1,.216-.852c.582-1.181,1.2-2.346,1.745-3.542a6.421,6.421,0,0,0,.752-1.965Z" transform="translate(468.922 -3963)"/><path d="M107.811,4011.134H100.2l-3.313-10.477-.32.073v10.349H89.418v-25.048h7.07v10.295c.613-.145.678-.634.826-.982q1.889-4.431,3.716-8.889c.186-.452.5-.487.9-.485,1.959.011,3.919,0,5.878,0v1.307c-.436-.062-.4.333-.5.554-1.406,3.209-2.809,6.421-4.182,9.645a1.879,1.879,0,0,0-.222,1.594c1.522,3.68,3,7.38,4.5,11.068.059.146.055.485.4.338Z" transform="translate(32.689 -3982.217)"/><path d="M-165.577,4001.581c0,1.923.008,3.744,0,5.565,0,.607-.475.886-.933,1.11a7.554,7.554,0,0,1-5.28.352c-3.6-.885-5.886-3.24-7.256-6.708-2.391,4.158-5.783,6.7-10.626,7.147s-8.621-1.476-11.809-5.189v4.621h-12.24v-25.039h7.105v19h4.209a13.421,13.421,0,0,1,.1-12.912,12.3,12.3,0,0,1,6.55-5.731,13.231,13.231,0,0,1,16.606,6.165,10.98,10.98,0,0,1,5.51-5.986,9.99,9.99,0,0,1,8.045.134v5.862a13.733,13.733,0,0,0-2.352-.559,4.05,4.05,0,0,0-4.3,3.134,10.779,10.779,0,0,0,.363,7.788,3.842,3.842,0,0,0,3.359,2.289A4.905,4.905,0,0,0-165.577,4001.581Zm-19.113-5.589a6.2,6.2,0,0,0-6.083-6.232,6.3,6.3,0,0,0-6.334,6.177,6.227,6.227,0,0,0,6.24,6.339A6.111,6.111,0,0,0-184.69,3995.992Z" transform="translate(286.308 -3979.625)"/></g></g></svg>