<svg xmlns="http://www.w3.org/2000/svg" width="35.819" height="35.819" viewBox="0 0 35.819 35.819"><defs><style>.a{fill:#0077b7;}</style></defs><path class="a" d="M32.579,0H3.24A3.24,3.24,0,0,0,0,3.24V32.579a3.24,3.24,0,0,0,3.24,3.24H32.579a3.24,3.24,0,0,0,3.24-3.24V3.24A3.24,3.24,0,0,0,32.579,0Zm-21.5,30.929a.943.943,0,0,1-.943.943H6.127a.943.943,0,0,1-.943-.943V14.1a.943.943,0,0,1,.943-.943h4.014a.943.943,0,0,1,.943.943ZM8.134,11.574a3.813,3.813,0,1,1,3.813-3.813A3.813,3.813,0,0,1,8.134,11.574ZM32.06,31a.867.867,0,0,1-.867.867H26.886A.867.867,0,0,1,26.019,31V23.112c0-1.177.345-5.159-3.077-5.159-2.654,0-3.193,2.725-3.3,3.949V31a.867.867,0,0,1-.867.867H14.609A.867.867,0,0,1,13.742,31V14.027a.867.867,0,0,1,.867-.867h4.166a.867.867,0,0,1,.867.867v1.468c.984-1.477,2.447-2.617,5.562-2.617,6.9,0,6.857,6.443,6.857,9.984V31Z"/></svg>