<svg xmlns="http://www.w3.org/2000/svg" width="119.915" height="119.915" viewBox="0 0 119.915 119.915"><defs><style>.a{fill:#2d61a9;}.b{fill:#fff;}</style></defs><g transform="translate(0 0)"><circle class="a" cx="42.396" cy="42.396" r="42.396" transform="translate(0 59.958) rotate(-45)"/></g><g transform="translate(48.102 29.989)"><path class="b" d="M730.67,1119.214a7.684,7.684,0,0,0-5.272-1.684,10.852,10.852,0,0,0-5.053,1.172,9.209,9.209,0,0,0-3.55,3.111,7.608,7.608,0,0,0-1.282,4.284,5.5,5.5,0,0,0,1.9,4.32,7.793,7.793,0,0,0,5.345,1.684,10.91,10.91,0,0,0,5.015-1.135,8.89,8.89,0,0,0,3.515-3.112,7.669,7.669,0,0,0,1.282-4.247A5.588,5.588,0,0,0,730.67,1119.214Z" transform="translate(-708.863 -1117.53)"/><path class="b" d="M712.87,1216.71s-6.749,2.691-6.138-.778l4.623-26.2a5.332,5.332,0,0,0-5.251-6.258H693.251l-.385,1.632s4.836.261,4.1,4.44l-4.743,26.877a6.973,6.973,0,0,0,2.171,6.337c2.619,2.377,6.215,2.221,9.388,1.209,1.059-.338,10.276-4.462,10.262-4.5Z" transform="translate(-692.118 -1164.732)"/></g></svg>