<svg xmlns="http://www.w3.org/2000/svg" width="21.791" height="25.788" viewBox="0 0 21.791 25.788"><defs><style>.a{fill:#0071bc;}</style></defs><g transform="translate(-1071.982 -241.008)"><path class="a" d="M1082.916,268.289c-2.2,0-4.407.014-6.611-.005a5.817,5.817,0,0,1-3.645-1.315,1.658,1.658,0,0,1-.672-1.519,8.208,8.208,0,0,1,4.75-7.1,7.038,7.038,0,0,1,3.148-.732c2.074,0,4.15-.025,6.224.008a8.114,8.114,0,0,1,7.619,7.147c.162,1.6-.1,2.1-1.53,2.819a6.078,6.078,0,0,1-2.8.693c-2.161-.009-4.322,0-6.482,0Z" transform="translate(0 -1.497)"/><path class="a" d="M1083.333,254.331a6.663,6.663,0,1,1,6.549-6.553A6.6,6.6,0,0,1,1083.333,254.331Z" transform="translate(-0.435)"/></g></svg>