<svg xmlns="http://www.w3.org/2000/svg" xmlns:xlink="http://www.w3.org/1999/xlink" width="128.356" height="35.819" viewBox="0 0 128.356 35.819"><defs><style>.a{fill:#0077b7;}.b{fill:#475993;}.c{fill:url(#a);}.d{fill:url(#b);}.e{fill:url(#c);}</style><linearGradient id="a" x1="0.5" y1="0.008" x2="0.5" y2="0.998" gradientUnits="objectBoundingBox"><stop offset="0" stop-color="#e09b3d"/><stop offset="0.3" stop-color="#c74c4d"/><stop offset="0.6" stop-color="#c21975"/><stop offset="1" stop-color="#7024c4"/></linearGradient><linearGradient id="b" y1="-0.451" y2="1.462" xlink:href="#a"/><linearGradient id="c" y1="-1.396" y2="6.586" xlink:href="#a"/></defs><g transform="translate(-1241 -1890)"><path class="a" d="M32.579,0H3.24A3.24,3.24,0,0,0,0,3.24V32.579a3.24,3.24,0,0,0,3.24,3.24H32.579a3.24,3.24,0,0,0,3.24-3.24V3.24A3.24,3.24,0,0,0,32.579,0Zm-21.5,30.929a.943.943,0,0,1-.943.943H6.127a.943.943,0,0,1-.943-.943V14.1a.943.943,0,0,1,.943-.943h4.014a.943.943,0,0,1,.943.943ZM8.134,11.574a3.813,3.813,0,1,1,3.813-3.813A3.813,3.813,0,0,1,8.134,11.574ZM32.06,31a.867.867,0,0,1-.867.867H26.886A.867.867,0,0,1,26.019,31V23.112c0-1.177.345-5.159-3.077-5.159-2.654,0-3.193,2.725-3.3,3.949V31a.867.867,0,0,1-.867.867H14.609A.867.867,0,0,1,13.742,31V14.027a.867.867,0,0,1,.867-.867h4.166a.867.867,0,0,1,.867.867v1.468c.984-1.477,2.447-2.617,5.562-2.617,6.9,0,6.857,6.443,6.857,9.984V31Z" transform="translate(1241 1890)"/><path class="b" d="M30.994,0H4.829A4.827,4.827,0,0,0,0,4.827V30.992a4.827,4.827,0,0,0,4.827,4.827h12.9l.022-12.8H14.43a.785.785,0,0,1-.785-.782l-.016-4.126a.785.785,0,0,1,.785-.788h3.319V13.337c0-4.627,2.826-7.146,6.953-7.146h3.387a.785.785,0,0,1,.785.785v3.479a.785.785,0,0,1-.784.785H25.995c-2.244,0-2.679,1.067-2.679,2.632v3.451h4.932a.785.785,0,0,1,.779.877l-.489,4.126a.785.785,0,0,1-.779.692H23.338l-.022,12.8h7.679a4.827,4.827,0,0,0,4.827-4.827V4.827A4.827,4.827,0,0,0,30.994,0Z" transform="translate(1287.478 1890)"/><g transform="translate(1333.537 1890)"><path class="c" d="M25.149,0H10.671A10.683,10.683,0,0,0,0,10.671V25.149A10.683,10.683,0,0,0,10.671,35.819H25.149A10.683,10.683,0,0,0,35.819,25.149V10.671A10.683,10.683,0,0,0,25.149,0Zm7.067,25.149a7.067,7.067,0,0,1-7.067,7.067H10.671A7.067,7.067,0,0,1,3.6,25.149V10.671A7.067,7.067,0,0,1,10.671,3.6H25.149a7.067,7.067,0,0,1,7.067,7.067V25.149Z"/><path class="d" d="M142.264,133a9.264,9.264,0,1,0,9.264,9.264A9.275,9.275,0,0,0,142.264,133Zm0,14.925a5.661,5.661,0,1,1,5.661-5.661A5.661,5.661,0,0,1,142.264,147.925Z" transform="translate(-124.354 -124.354)"/><circle class="e" cx="2.22" cy="2.22" r="2.22" transform="translate(24.972 6.495)"/></g></g></svg>