<svg xmlns="http://www.w3.org/2000/svg" width="85.268" height="85.284" viewBox="0 0 85.268 85.284"><defs><style>.a{fill:#2d61a9;}.b{fill:#fdfefe;}.c{fill:#7eb1b8;}.d{fill:#5ba0a8;}.e{fill:#13818d;}</style></defs><g transform="translate(-2607.91 -520.712)"><g transform="translate(2607.91 520.712)"><path class="a" d="M2650.813,520.713a42.642,42.642,0,1,1-42.9,42.367A42.732,42.732,0,0,1,2650.813,520.713Zm25.744,60.752a8.573,8.573,0,0,0,.281-1.439c.014-11.292-.011-22.583.038-33.874.007-1.6-.8-1.726-2.052-1.724-14.424.024-28.847.047-43.271-.025-1.811-.009-2.182.608-2.172,2.273.065,10.781.1,21.563-.02,32.343-.023,2.128.7,2.5,2.611,2.485,14.132-.072,28.265-.039,42.4-.039Zm-47.83-.513V546.735c-2.956-.979-4.557,2.627-7.6,1.349.922,4.838,1.586,9.211,2.61,13.5C2625.283,568.067,2625.322,574.953,2628.727,580.952Z" transform="translate(-2607.91 -520.712)"/><path class="b" d="M2704.166,611.958h-2.188c-14.132,0-28.265-.033-42.4.039-1.914.01-2.634-.358-2.611-2.485.118-10.78.085-21.562.02-32.343-.01-1.665.361-2.282,2.172-2.273,14.424.073,28.847.049,43.271.025,1.254,0,2.059.125,2.052,1.724-.048,11.291-.024,22.582-.038,33.874A8.574,8.574,0,0,1,2704.166,611.958Zm-42.934-11.2c.715.536,1.542.289,2.314.29q16.745.026,33.491,0c.79,0,1.579-.112,2.369-.171h.761c.287.125.43.011.466-.281.028-.552.242-1.127-.192-1.673h-39.391C2660.841,599.607,2660.659,600.219,2661.232,600.758Zm-.061-5.078c-.926,1.919.386,1.845,1.635,1.844q18.143,0,36.286-.006c.5,0,1-.063,1.54-.1v-1.592c.005-.3-.123-.427-.425-.325l-.833.008c-3.84-.044-7.681-.129-11.521-.122-8.412.016-16.823.079-25.234.122l-.839-.007A.444.444,0,0,0,2661.171,595.68Zm21.962-3.758c5.68,0,11.053,0,16.426,0,1.028,0,1.139-.638,1.135-1.45-.015-3.2-.034-6.408.011-9.612.015-1.095-.358-1.616-1.494-1.611q-7.318.028-14.636,0c-.978,0-1.463.37-1.454,1.419C2683.152,584.306,2683.134,587.938,2683.134,591.922Zm17.407,14.147h-39.289a1.869,1.869,0,0,0,.088,1.841h39.106A2.124,2.124,0,0,0,2700.541,606.069Zm.021-3.578h-39.3c-.5,1.638.329,1.826,1.565,1.824q18.56-.042,37.12-.033a.99.99,0,0,0,.615-1.791Zm-20.47-13.221c.211-1.084.157-1.7-.939-1.7q-8.5.025-17.006,0c-.678,0-1.117.144-1.083.962.032.778.56.731,1.065.731C2668.08,589.271,2674.03,589.27,2680.092,589.27Zm-9.595,2.7c2.762,0,5.524.014,8.286-.011.582-.005,1.431.276,1.412-.807-.017-.916-.739-.725-1.276-.726q-8.287-.016-16.573,0c-.576,0-1.233-.074-1.2.817.031.931.764.714,1.287.718C2665.118,591.986,2667.808,591.973,2670.5,591.974Zm-3.949-9.757a4.186,4.186,0,0,0-.131-2.531h-5.564c.155.881-.226,1.714.251,2.531Z" transform="translate(-2635.519 -551.205)"/><path class="b" d="M2645.733,614.227c-3.405-6-3.444-12.885-4.994-19.371-1.024-4.287-1.688-8.66-2.61-13.5,3.047,1.278,4.648-2.327,7.6-1.349Zm-3.6-31.933c.292-.223.237-.458.022-.7C2641.878,581.819,2641.907,582.053,2642.136,582.293Z" transform="translate(-2624.916 -553.986)"/><path class="a" d="M2716.794,597.529c0-3.984.019-7.616-.012-11.247-.009-1.049.476-1.421,1.454-1.419q7.318.016,14.636,0c1.135,0,1.509.516,1.494,1.611-.045,3.2-.026,6.408-.011,9.612,0,.812-.107,1.452-1.135,1.45C2727.846,597.524,2722.474,597.529,2716.794,597.529Z" transform="translate(-2669.179 -556.812)"/><path class="a" d="M2705.8,646.192a2.125,2.125,0,0,1-.095,1.841H2666.6a1.869,1.869,0,0,1-.088-1.841Z" transform="translate(-2640.776 -591.328)"/><path class="a" d="M2705.639,622.347v1.592c-.544.037-1.042.1-1.54.1q-18.143.009-36.286.006c-1.249,0-2.561.074-1.635-1.844l.609-.179.839.007a2.418,2.418,0,0,0,1.679.287q16.7.008,33.4,0a2.433,2.433,0,0,0,1.679-.287l.833-.008Z" transform="translate(-2640.526 -577.726)"/><path class="a" d="M2705.159,631.813h-.761c-1.933-.514-3.9-.222-5.851-.222-10.774,0-21.549.059-32.324.1-.573-.539-.391-1.15-.182-1.83h39.391c.434.546.22,1.121.192,1.673Z" transform="translate(-2640.511 -582.136)"/><path class="a" d="M2705.9,638.009a.99.99,0,0,1-.615,1.791q-18.56.017-37.121.033c-1.236,0-2.061-.185-1.565-1.824Z" transform="translate(-2640.855 -586.723)"/><path class="a" d="M2685.359,605.587c-6.062,0-12.012,0-17.962,0-.506,0-1.033.047-1.065-.731-.034-.818.4-.963,1.083-.962q8.5.015,17.006,0C2685.517,603.887,2685.57,604.5,2685.359,605.587Z" transform="translate(-2640.787 -567.522)"/><path class="a" d="M2675.865,611.947c-2.689,0-5.379.012-8.068-.011-.523,0-1.256.213-1.287-.718-.029-.891.629-.817,1.2-.817q8.286-.007,16.573,0c.537,0,1.259-.19,1.276.726.02,1.083-.829.8-1.412.807C2681.39,611.961,2678.627,611.947,2675.865,611.947Z" transform="translate(-2640.887 -571.178)"/><path class="c" d="M2666.719,633.812c10.774-.039,21.549-.1,32.323-.1,1.948,0,3.918-.292,5.851.222-.79.059-1.579.17-2.369.171q-16.745.017-33.491,0C2668.261,634.1,2667.434,634.348,2666.719,633.812Z" transform="translate(-2641.006 -584.259)"/><path class="a" d="M2706.646,621.882a2.433,2.433,0,0,1-1.679.287q-16.7.008-33.4,0a2.417,2.417,0,0,1-1.678-.287c8.411-.043,16.822-.106,25.234-.122C2698.965,621.753,2702.806,621.838,2706.646,621.882Z" transform="translate(-2642.791 -577.578)"/><path class="a" d="M2671.545,588.382H2666.1c-.477-.816-.1-1.649-.251-2.531h5.564A4.187,4.187,0,0,1,2671.545,588.382Z" transform="translate(-2640.517 -557.37)"/><path class="d" d="M2667.188,621.951l-.608.179A.444.444,0,0,1,2667.188,621.951Z" transform="translate(-2640.928 -577.654)"/><path class="d" d="M2756.284,622.3l-.425-.325C2756.161,621.876,2756.289,622,2756.284,622.3Z" transform="translate(-2691.171 -577.681)"/><path class="c" d="M2755.767,633.966l.466-.281C2756.2,633.977,2756.054,634.09,2755.767,633.966Z" transform="translate(-2691.119 -584.289)"/><path class="e" d="M2647.062,584.554c-.229-.241-.257-.475.024-.7C2647.3,584.1,2647.354,584.33,2647.062,584.554Z" transform="translate(-2629.843 -556.247)"/></g></g></svg>