<svg xmlns="http://www.w3.org/2000/svg" width="1155.553" height="81.621" viewBox="0 0 1155.553 81.621"><defs><style>.a,.c,.e,.f,.h,.j{fill:none;stroke-miterlimit:10;}.a{stroke:#858585;}.b{fill:#53924b;}.c{stroke:#53924b;}.d{fill:#6cb476;}.e{stroke:#6cb476;}.f{stroke:#5ea49b;}.g{fill:#5ea49b;}.h{stroke:#365989;}.i{fill:#365989;}.j{stroke:#4674b7;}.k{fill:#4674b7;}</style></defs><g transform="translate(0 0.653)"><line class="a" x2="1155.552" transform="translate(0 40.157)"/><ellipse class="b" cx="12.404" cy="12.404" rx="12.404" ry="12.404" transform="translate(55.191 27.753)"/><ellipse class="c" cx="30.735" cy="30.735" rx="30.735" ry="30.735" transform="translate(32.434 65.572) rotate(-80.783)"/><ellipse class="d" cx="12.404" cy="12.404" rx="12.404" ry="12.404" transform="translate(310.838 27.753)"/><ellipse class="e" cx="30.735" cy="30.735" rx="30.735" ry="30.735" transform="translate(292.508 9.422)"/><ellipse class="f" cx="30.735" cy="30.735" rx="30.735" ry="30.735" transform="matrix(0.924, -0.383, 0.383, 0.924, 538.846, 23.523)"/><ellipse class="g" cx="12.404" cy="12.404" rx="12.404" ry="12.404" transform="translate(566.549 27.753)"/><ellipse class="h" cx="30.735" cy="30.735" rx="30.735" ry="30.735" transform="translate(1055.672 65.572) rotate(-80.783)"/><ellipse class="i" cx="12.404" cy="12.404" rx="12.404" ry="12.404" transform="translate(1078.094 27.753)"/><ellipse class="j" cx="30.735" cy="30.735" rx="30.735" ry="30.735" transform="translate(799.289 65.572) rotate(-80.783)"/><ellipse class="k" cx="12.404" cy="12.404" rx="12.404" ry="12.404" transform="translate(822.196 27.753)"/></g></svg>