<svg xmlns="http://www.w3.org/2000/svg" xmlns:xlink="http://www.w3.org/1999/xlink" width="35.819" height="35.819" viewBox="0 0 35.819 35.819"><defs><style>.a{fill:url(#a);}.b{fill:url(#b);}.c{fill:url(#c);}</style><linearGradient id="a" x1="0.5" y1="0.008" x2="0.5" y2="0.998" gradientUnits="objectBoundingBox"><stop offset="0" stop-color="#e09b3d"/><stop offset="0.3" stop-color="#c74c4d"/><stop offset="0.6" stop-color="#c21975"/><stop offset="1" stop-color="#7024c4"/></linearGradient><linearGradient id="b" y1="-0.451" y2="1.462" xlink:href="#a"/><linearGradient id="c" y1="-1.396" y2="6.586" xlink:href="#a"/></defs><path class="a" d="M25.149,0H10.671A10.683,10.683,0,0,0,0,10.671V25.149A10.683,10.683,0,0,0,10.671,35.819H25.149A10.683,10.683,0,0,0,35.819,25.149V10.671A10.683,10.683,0,0,0,25.149,0Zm7.067,25.149a7.067,7.067,0,0,1-7.067,7.067H10.671A7.067,7.067,0,0,1,3.6,25.149V10.671A7.067,7.067,0,0,1,10.671,3.6H25.149a7.067,7.067,0,0,1,7.067,7.067V25.149Z"/><path class="b" d="M142.264,133a9.264,9.264,0,1,0,9.264,9.264A9.275,9.275,0,0,0,142.264,133Zm0,14.925a5.661,5.661,0,1,1,5.661-5.661A5.661,5.661,0,0,1,142.264,147.925Z" transform="translate(-124.354 -124.354)"/><circle class="c" cx="2.22" cy="2.22" r="2.22" transform="translate(24.972 6.495)"/></svg>